<?xml version="1.0" encoding="UTF-8" standalone="no"?>
<!-- Created with Inkscape (http://www.inkscape.org/) -->

<svg
   xmlns:dc="http://purl.org/dc/elements/1.1/"
   xmlns:cc="http://creativecommons.org/ns#"
   xmlns:rdf="http://www.w3.org/1999/02/22-rdf-syntax-ns#"
   xmlns:svg="http://www.w3.org/2000/svg"
   xmlns="http://www.w3.org/2000/svg"
   xmlns:sodipodi="http://sodipodi.sourceforge.net/DTD/sodipodi-0.dtd"
   xmlns:inkscape="http://www.inkscape.org/namespaces/inkscape"
   width="200"
   height="200"
   id="svg3009"
   version="1.1"
   inkscape:version="0.48.2 r9819"
   sodipodi:docname="pagebuilder.svg">
  <defs
     id="defs3011" />
  <sodipodi:namedview
     id="base"
     pagecolor="#ffffff"
     bordercolor="#666666"
     borderopacity="1.0"
     inkscape:pageopacity="0.0"
     inkscape:pageshadow="2"
     inkscape:zoom="1.979899"
     inkscape:cx="32.863985"
     inkscape:cy="89.152657"
     inkscape:document-units="px"
     inkscape:current-layer="layer1"
     showgrid="true"
     units="px"
     inkscape:window-width="1280"
     inkscape:window-height="962"
     inkscape:window-x="-8"
     inkscape:window-y="-8"
     inkscape:window-maximized="1"
     showguides="true"
     inkscape:guide-bbox="true">
    <inkscape:grid
       type="xygrid"
       id="grid3017"
       empspacing="5"
       visible="true"
       enabled="true"
       snapvisiblegridlinesonly="true"
       units="px"
       spacingx="1px"
       spacingy="1px"
       dotted="false" />
  </sodipodi:namedview>
  <metadata
     id="metadata3014">
    <rdf:RDF>
      <cc:Work
         rdf:about="">
        <dc:format>image/svg+xml</dc:format>
        <dc:type
           rdf:resource="http://purl.org/dc/dcmitype/StillImage" />
        <dc:title />
        <dc:creator>
          <cc:Agent>
            <dc:title>Brecht Baeten</dc:title>
          </cc:Agent>
        </dc:creator>
        <dc:rights>
          <cc:Agent>
            <dc:title>Copyright Brecht Baeten</dc:title>
          </cc:Agent>
        </dc:rights>
        <dc:description />
        <cc:license
           rdf:resource="http://www.gnu.org/copyleft/gpl.html" />
      </cc:Work>
    </rdf:RDF>
  </metadata>
  <g
     inkscape:label="Layer 1"
     inkscape:groupmode="layer"
     id="layer1"
     transform="translate(0,-852.3622)">
    <path
       style="fill:none;stroke:#000000;stroke-width:4;stroke-linecap:butt;stroke-linejoin:miter;stroke-opacity:1;stroke-miterlimit:4;stroke-dasharray:none"
       d="m 35,1022.3622 c 0,-40 0,-100 0,-140 0,-2.35702 2.642977,-5 5,-5 25,0 55,0 80,0 2.2182,0 3.29092,0.29092 5,2 18,18 0,0 18,18 1.89411,1.89411 2,2.29565 2,5 0,35 0,85 0,120 0,2.357 -2.64298,5 -5,5 -30,0 -65,0 -100,0 -2.357023,0 -5,-2.643 -5,-5 z"
       id="path2983"
       inkscape:connector-curvature="0"
       sodipodi:nodetypes="sssssssssss" />
    <path
       style="fill:#000000;stroke:#000000;stroke-width:1px;stroke-linecap:butt;stroke-linejoin:miter;stroke-opacity:1"
       d="m 120,877.3622 c 0,10 0,14 0,20 0,2.35702 2.64298,5 5,5 6,0 15,0 20,0 0,-2 -0.7307,-3.7307 -2,-5 -18,-18 0,0 -18,-18 -1.2693,-1.2693 -3,-2 -5,-2 z"
       id="path3753"
       inkscape:connector-curvature="0"
       sodipodi:nodetypes="csscssc" />
    <rect
       style="fill:#4d4d4d;fill-opacity:1;fill-rule:evenodd;stroke:#4d4d4d;stroke-width:1;stroke-linecap:round;stroke-linejoin:miter;stroke-miterlimit:4;stroke-opacity:1;stroke-dasharray:none;stroke-dashoffset:0"
       id="rect3769"
       width="100"
       height="10"
       x="40"
       y="907.36218" />
    <rect
       style="fill:#cccccc;fill-opacity:1;fill-rule:evenodd;stroke:#cccccc;stroke-width:0.5;stroke-linecap:round;stroke-linejoin:miter;stroke-miterlimit:4;stroke-opacity:1;stroke-dasharray:none;stroke-dashoffset:0"
       id="rect3773"
       width="35"
       height="5.0000172"
       x="40"
       y="922.36218" />
    <path
       style="fill:none;stroke:#333333;stroke-width:1px;stroke-linecap:butt;stroke-linejoin:miter;stroke-opacity:1"
       d="m 42,925.3622 19,0"
       id="path3779"
       inkscape:connector-curvature="0" />
    <g
       id="g3791">
      <rect
         style="fill:#4d4d4d;fill-opacity:1;fill-rule:evenodd;stroke:#333333;stroke-width:0.5;stroke-linecap:round;stroke-linejoin:miter;stroke-miterlimit:4;stroke-opacity:1;stroke-dasharray:none;stroke-dashoffset:0"
         id="rect3771"
         width="35"
         height="7.0000176"
         x="40"
         y="927.36218" />
      <path
         style="fill:none;stroke:#ffffff;stroke-width:1px;stroke-linecap:butt;stroke-linejoin:miter;stroke-opacity:1"
         d="m 47,931.3622 19,0"
         id="path3787"
         inkscape:connector-curvature="0" />
      <path
         transform="translate(0,852.3622)"
         inkscape:connector-curvature="0"
         id="path3789"
         d="m 42,77 0,2 -1,1 4,0 -1,-1 0,-2 z"
         style="fill:none;stroke:#ffffff;stroke-width:0.50000000000000000;stroke-linecap:butt;stroke-linejoin:round;stroke-opacity:1;stroke-miterlimit:4;stroke-dasharray:none" />
    </g>
    <g
       id="g3820"
       transform="translate(0,7)">
      <rect
         y="927.36218"
         x="40"
         height="7.0000176"
         width="35"
         id="rect3822"
         style="fill:#4d4d4d;fill-opacity:1;fill-rule:evenodd;stroke:#333333;stroke-width:0.5;stroke-linecap:round;stroke-linejoin:miter;stroke-miterlimit:4;stroke-opacity:1;stroke-dasharray:none;stroke-dashoffset:0" />
      <path
         inkscape:connector-curvature="0"
         id="path3824"
         d="m 47,931.3622 19,0"
         style="fill:none;stroke:#ffffff;stroke-width:1px;stroke-linecap:butt;stroke-linejoin:miter;stroke-opacity:1" />
      <path
         style="fill:none;stroke:#ffffff;stroke-width:0.5;stroke-linecap:butt;stroke-linejoin:round;stroke-miterlimit:4;stroke-opacity:1;stroke-dasharray:none"
         d="m 42,77 0,2 -1,1 4,0 -1,-1 0,-2 z"
         id="path3826"
         inkscape:connector-curvature="0"
         transform="translate(0,852.3622)" />
    </g>
    <rect
       y="948.36218"
       x="40"
       height="5.0000172"
       width="35"
       id="rect3836"
       style="fill:#cccccc;fill-opacity:1;fill-rule:evenodd;stroke:#cccccc;stroke-width:0.5;stroke-linecap:round;stroke-linejoin:miter;stroke-miterlimit:4;stroke-opacity:1;stroke-dasharray:none;stroke-dashoffset:0" />
    <g
       transform="translate(0,14)"
       id="g3828">
      <rect
         style="fill:#4d4d4d;fill-opacity:1;fill-rule:evenodd;stroke:#333333;stroke-width:0.5;stroke-linecap:round;stroke-linejoin:miter;stroke-miterlimit:4;stroke-opacity:1;stroke-dasharray:none;stroke-dashoffset:0"
         id="rect3830"
         width="35"
         height="7.0000176"
         x="40"
         y="927.36218" />
      <path
         style="fill:none;stroke:#ffffff;stroke-width:1px;stroke-linecap:butt;stroke-linejoin:miter;stroke-opacity:1"
         d="m 47,931.3622 19,0"
         id="path3832"
         inkscape:connector-curvature="0" />
      <path
         transform="translate(0,852.3622)"
         inkscape:connector-curvature="0"
         id="path3834"
         d="m 42,77 0,2 -1,1 4,0 -1,-1 0,-2 z"
         style="fill:none;stroke:#ffffff;stroke-width:0.5;stroke-linecap:butt;stroke-linejoin:round;stroke-miterlimit:4;stroke-opacity:1;stroke-dasharray:none" />
    </g>
    <path
       inkscape:connector-curvature="0"
       id="path3838"
       d="m 42,951.3622 19,0"
       style="fill:none;stroke:#333333;stroke-width:1px;stroke-linecap:butt;stroke-linejoin:miter;stroke-opacity:1" />
    <g
       id="g3840"
       transform="translate(0,26)">
      <rect
         y="927.36218"
         x="40"
         height="7.0000176"
         width="35"
         id="rect3842"
         style="fill:#4d4d4d;fill-opacity:1;fill-rule:evenodd;stroke:#333333;stroke-width:0.5;stroke-linecap:round;stroke-linejoin:miter;stroke-miterlimit:4;stroke-opacity:1;stroke-dasharray:none;stroke-dashoffset:0" />
      <path
         inkscape:connector-curvature="0"
         id="path3844"
         d="m 47,931.3622 19,0"
         style="fill:none;stroke:#ffffff;stroke-width:1px;stroke-linecap:butt;stroke-linejoin:miter;stroke-opacity:1" />
      <path
         style="fill:none;stroke:#ffffff;stroke-width:0.5;stroke-linecap:butt;stroke-linejoin:round;stroke-miterlimit:4;stroke-opacity:1;stroke-dasharray:none"
         d="m 42,77 0,2 -1,1 4,0 -1,-1 0,-2 z"
         id="path3846"
         inkscape:connector-curvature="0"
         transform="translate(0,852.3622)" />
    </g>
    <g
       transform="translate(0,33)"
       id="g3848">
      <rect
         style="fill:#4d4d4d;fill-opacity:1;fill-rule:evenodd;stroke:#333333;stroke-width:0.5;stroke-linecap:round;stroke-linejoin:miter;stroke-miterlimit:4;stroke-opacity:1;stroke-dasharray:none;stroke-dashoffset:0"
         id="rect3850"
         width="35"
         height="7.0000176"
         x="40"
         y="927.36218" />
      <path
         style="fill:none;stroke:#ffffff;stroke-width:1px;stroke-linecap:butt;stroke-linejoin:miter;stroke-opacity:1"
         d="m 47,931.3622 19,0"
         id="path3852"
         inkscape:connector-curvature="0" />
      <path
         transform="translate(0,852.3622)"
         inkscape:connector-curvature="0"
         id="path3854"
         d="m 42,77 0,2 -1,1 4,0 -1,-1 0,-2 z"
         style="fill:none;stroke:#ffffff;stroke-width:0.5;stroke-linecap:butt;stroke-linejoin:round;stroke-miterlimit:4;stroke-opacity:1;stroke-dasharray:none" />
    </g>
    <rect
       style="fill:#cccccc;fill-opacity:1;fill-rule:evenodd;stroke:#cccccc;stroke-width:0.5;stroke-linecap:round;stroke-linejoin:miter;stroke-miterlimit:4;stroke-opacity:1;stroke-dasharray:none;stroke-dashoffset:0"
       id="rect3917"
       width="35"
       height="5.0000172"
       x="40"
       y="974.36218" />
    <g
       id="g3856"
       transform="translate(0,40)">
      <rect
         y="927.36218"
         x="40"
         height="7.0000176"
         width="35"
         id="rect3858"
         style="fill:#4d4d4d;fill-opacity:1;fill-rule:evenodd;stroke:#333333;stroke-width:0.5;stroke-linecap:round;stroke-linejoin:miter;stroke-miterlimit:4;stroke-opacity:1;stroke-dasharray:none;stroke-dashoffset:0" />
      <path
         inkscape:connector-curvature="0"
         id="path3860"
         d="m 47,931.3622 19,0"
         style="fill:none;stroke:#ffffff;stroke-width:1px;stroke-linecap:butt;stroke-linejoin:miter;stroke-opacity:1" />
      <path
         style="fill:none;stroke:#ffffff;stroke-width:0.5;stroke-linecap:butt;stroke-linejoin:round;stroke-miterlimit:4;stroke-opacity:1;stroke-dasharray:none"
         d="m 42,77 0,2 -1,1 4,0 -1,-1 0,-2 z"
         id="path3862"
         inkscape:connector-curvature="0"
         transform="translate(0,852.3622)" />
    </g>
    <rect
       y="932.36218"
       x="80"
       height="5.0000172"
       width="60"
       id="rect3864"
       style="fill:#cccccc;fill-opacity:1;fill-rule:evenodd;stroke:#cccccc;stroke-width:0.49999997;stroke-linecap:round;stroke-linejoin:miter;stroke-miterlimit:4;stroke-opacity:1;stroke-dasharray:none;stroke-dashoffset:0" />
    <path
       inkscape:connector-curvature="0"
       id="path3866"
       d="m 83.42857,935.3622 32.57143,0"
       style="fill:none;stroke:#333333;stroke-width:0.99999994px;stroke-linecap:butt;stroke-linejoin:miter;stroke-opacity:1" />
    <rect
       style="fill:#4d4d4d;fill-opacity:1;fill-rule:evenodd;stroke:#333333;stroke-width:0.49999997;stroke-linecap:round;stroke-linejoin:miter;stroke-miterlimit:4;stroke-opacity:1;stroke-dasharray:none;stroke-dashoffset:0"
       id="rect3870"
       width="60"
       height="30.000017"
       x="80"
       y="937.36224" />
    <path
       inkscape:connector-curvature="0"
       id="path3891"
       d="m 90.394282,960.36215 44.605718,0"
       style="fill:none;stroke:#ffffff;stroke-width:0.99999994px;stroke-linecap:butt;stroke-linejoin:miter;stroke-opacity:1" />
    <path
       style="fill:none;stroke:#ffffff;stroke-width:0.99999994px;stroke-linecap:butt;stroke-linejoin:miter;stroke-opacity:1"
       d="m 90.394286,941.3622 16.497144,0"
       id="path3872"
       inkscape:connector-curvature="0" />
    <path
       inkscape:connector-curvature="0"
       id="path3874"
       d="m 84.737143,939.3622 0,2 -1.131429,1 4.525714,0 -1.131428,-1 0,-2 z"
       style="fill:none;stroke:#ffffff;stroke-width:0.49999997;stroke-linecap:butt;stroke-linejoin:round;stroke-miterlimit:4;stroke-opacity:1;stroke-dasharray:none" />
    <path
       inkscape:connector-curvature="0"
       id="path3879"
       d="m 90.999995,926.3622 19.999995,0"
       style="fill:none;stroke:#000000;stroke-width:0.99999994px;stroke-linecap:butt;stroke-linejoin:miter;stroke-opacity:1" />
    <path
       style="fill:none;stroke:#000000;stroke-width:0.49999997;stroke-linecap:butt;stroke-linejoin:round;stroke-miterlimit:4;stroke-opacity:1;stroke-dasharray:none"
       d="m 83.535716,924.36223 0,3.2197 -1.82143,1.60985 7.285717,0 -1.821429,-1.60985 0,-3.2197 z"
       id="path3881"
       inkscape:connector-curvature="0" />
    <path
       inkscape:connector-curvature="0"
       id="path3883"
       d="m 90.394286,947.3622 16.497144,0"
       style="fill:none;stroke:#ffffff;stroke-width:0.99999994px;stroke-linecap:butt;stroke-linejoin:miter;stroke-opacity:1" />
    <path
       style="fill:none;stroke:#ffffff;stroke-width:0.49999997;stroke-linecap:butt;stroke-linejoin:round;stroke-miterlimit:4;stroke-opacity:1;stroke-dasharray:none"
       d="m 84.737143,945.3622 0,2 -1.131429,1 4.525714,0 -1.131428,-1 0,-2 z"
       id="path3885"
       inkscape:connector-curvature="0" />
    <path
       style="fill:none;stroke:#ffffff;stroke-width:0.99999994px;stroke-linecap:butt;stroke-linejoin:miter;stroke-opacity:1"
       d="m 90.394286,954.3622 16.497144,0"
       id="path3887"
       inkscape:connector-curvature="0" />
    <path
       inkscape:connector-curvature="0"
       id="path3889"
       d="m 84.737143,952.3622 0,2 -1.131429,1 4.525714,0 -1.131428,-1 0,-2 z"
       style="fill:none;stroke:#ffffff;stroke-width:0.49999997;stroke-linecap:butt;stroke-linejoin:round;stroke-miterlimit:4;stroke-opacity:1;stroke-dasharray:none" />
    <path
       style="fill:none;stroke:#ffffff;stroke-width:0.49999997;stroke-linecap:butt;stroke-linejoin:round;stroke-miterlimit:4;stroke-opacity:1;stroke-dasharray:none"
       d="m 84.737143,958.3622 0,2 -1.131429,1 4.525714,0 -1.131428,-1 0,-2 z"
       id="path3893"
       inkscape:connector-curvature="0" />
    <rect
       style="fill:#cccccc;fill-opacity:1;fill-rule:evenodd;stroke:#cccccc;stroke-width:0.49999997;stroke-linecap:round;stroke-linejoin:miter;stroke-miterlimit:4;stroke-opacity:1;stroke-dasharray:none;stroke-dashoffset:0"
       id="rect3895"
       width="60"
       height="5.0000172"
       x="80"
       y="972.36218" />
    <path
       style="fill:none;stroke:#333333;stroke-width:0.99999994px;stroke-linecap:butt;stroke-linejoin:miter;stroke-opacity:1"
       d="m 83.42857,975.36222 32.57143,0"
       id="path3897"
       inkscape:connector-curvature="0" />
    <rect
       y="977.36224"
       x="80"
       height="30.000017"
       width="60"
       id="rect3899"
       style="fill:#4d4d4d;fill-opacity:1;fill-rule:evenodd;stroke:#333333;stroke-width:0.49999997;stroke-linecap:round;stroke-linejoin:miter;stroke-miterlimit:4;stroke-opacity:1;stroke-dasharray:none;stroke-dashoffset:0" />
    <path
       style="fill:none;stroke:#ffffff;stroke-width:0.99999994px;stroke-linecap:butt;stroke-linejoin:miter;stroke-opacity:1"
       d="m 90.394282,1000.3622 44.605718,0"
       id="path3901"
       inkscape:connector-curvature="0" />
    <g
       id="g3763"
       transform="matrix(0.8660254,0.5,-0.5,0.8660254,533.41831,87.281456)">
      <path
         transform="translate(0,852.3622)"
         inkscape:connector-curvature="0"
         id="path3757"
         d="m 90,140 20,0 -10,20 z"
         style="fill:#000000;stroke:#000000;stroke-width:1px;stroke-linecap:butt;stroke-linejoin:miter;stroke-opacity:1" />
      <path
         transform="translate(0,852.3622)"
         inkscape:connector-curvature="0"
         id="path3759"
         d="m 90,135 20,0 0,-65 -20,0 z"
         style="fill:#000000;stroke:#000000;stroke-width:1px;stroke-linecap:butt;stroke-linejoin:miter;stroke-opacity:1" />
      <path
         transform="translate(0,852.3622)"
         inkscape:connector-curvature="0"
         id="path3761"
         d="m 90,55 20,0 0,10 -20,0 z"
         style="fill:#000000;stroke:#000000;stroke-width:1px;stroke-linecap:butt;stroke-linejoin:miter;stroke-opacity:1" />
    </g>
    <path
       inkscape:connector-curvature="0"
       id="path3903"
       d="m 90.394286,981.36222 16.497144,0"
       style="fill:none;stroke:#ffffff;stroke-width:0.99999994px;stroke-linecap:butt;stroke-linejoin:miter;stroke-opacity:1" />
    <path
       style="fill:none;stroke:#ffffff;stroke-width:0.49999997;stroke-linecap:butt;stroke-linejoin:round;stroke-miterlimit:4;stroke-opacity:1;stroke-dasharray:none"
       d="m 84.737143,979.36222 0,2 -1.131429,1 4.525714,0 -1.131428,-1 0,-2 z"
       id="path3905"
       inkscape:connector-curvature="0" />
    <path
       style="fill:none;stroke:#ffffff;stroke-width:0.99999994px;stroke-linecap:butt;stroke-linejoin:miter;stroke-opacity:1"
       d="m 90.394286,987.36222 16.497144,0"
       id="path3907"
       inkscape:connector-curvature="0" />
    <path
       inkscape:connector-curvature="0"
       id="path3909"
       d="m 84.737143,985.36222 0,2 -1.131429,1 4.525714,0 -1.131428,-1 0,-2 z"
       style="fill:none;stroke:#ffffff;stroke-width:0.49999997;stroke-linecap:butt;stroke-linejoin:round;stroke-miterlimit:4;stroke-opacity:1;stroke-dasharray:none" />
    <path
       inkscape:connector-curvature="0"
       id="path3911"
       d="m 90.394286,994.36222 16.497144,0"
       style="fill:none;stroke:#ffffff;stroke-width:0.99999994px;stroke-linecap:butt;stroke-linejoin:miter;stroke-opacity:1" />
    <path
       style="fill:none;stroke:#ffffff;stroke-width:0.49999997;stroke-linecap:butt;stroke-linejoin:round;stroke-miterlimit:4;stroke-opacity:1;stroke-dasharray:none"
       d="m 84.737143,992.36222 0,2 -1.131429,1 4.525714,0 -1.131428,-1 0,-2 z"
       id="path3913"
       inkscape:connector-curvature="0" />
    <path
       inkscape:connector-curvature="0"
       id="path3915"
       d="m 84.737143,998.36222 0,1.99998 -1.131429,1 4.525714,0 -1.131428,-1 0,-1.99998 z"
       style="fill:none;stroke:#ffffff;stroke-width:0.49999997;stroke-linecap:butt;stroke-linejoin:round;stroke-miterlimit:4;stroke-opacity:1;stroke-dasharray:none" />
    <path
       style="fill:none;stroke:#333333;stroke-width:1px;stroke-linecap:butt;stroke-linejoin:miter;stroke-opacity:1"
       d="m 42,977.36222 19,0"
       id="path3919"
       inkscape:connector-curvature="0" />
    <g
       transform="translate(0,52.000017)"
       id="g3921">
      <rect
         style="fill:#4d4d4d;fill-opacity:1;fill-rule:evenodd;stroke:#333333;stroke-width:0.5;stroke-linecap:round;stroke-linejoin:miter;stroke-miterlimit:4;stroke-opacity:1;stroke-dasharray:none;stroke-dashoffset:0"
         id="rect3923"
         width="35"
         height="7.0000176"
         x="40"
         y="927.36218" />
      <path
         style="fill:none;stroke:#ffffff;stroke-width:1px;stroke-linecap:butt;stroke-linejoin:miter;stroke-opacity:1"
         d="m 47,931.3622 19,0"
         id="path3925"
         inkscape:connector-curvature="0" />
      <path
         transform="translate(0,852.3622)"
         inkscape:connector-curvature="0"
         id="path3927"
         d="m 42,77 0,2 -1,1 4,0 -1,-1 0,-2 z"
         style="fill:none;stroke:#ffffff;stroke-width:0.5;stroke-linecap:butt;stroke-linejoin:round;stroke-miterlimit:4;stroke-opacity:1;stroke-dasharray:none" />
    </g>
    <g
       id="g3929"
       transform="translate(0,59.000017)">
      <rect
         y="927.36218"
         x="40"
         height="7.0000176"
         width="35"
         id="rect3931"
         style="fill:#4d4d4d;fill-opacity:1;fill-rule:evenodd;stroke:#333333;stroke-width:0.5;stroke-linecap:round;stroke-linejoin:miter;stroke-miterlimit:4;stroke-opacity:1;stroke-dasharray:none;stroke-dashoffset:0" />
      <path
         inkscape:connector-curvature="0"
         id="path3933"
         d="m 47,931.3622 19,0"
         style="fill:none;stroke:#ffffff;stroke-width:1px;stroke-linecap:butt;stroke-linejoin:miter;stroke-opacity:1" />
      <path
         style="fill:none;stroke:#ffffff;stroke-width:0.5;stroke-linecap:butt;stroke-linejoin:round;stroke-miterlimit:4;stroke-opacity:1;stroke-dasharray:none"
         d="m 42,77 0,2 -1,1 4,0 -1,-1 0,-2 z"
         id="path3935"
         inkscape:connector-curvature="0"
         transform="translate(0,852.3622)" />
    </g>
    <g
       transform="translate(0,66.000017)"
       id="g3937">
      <rect
         style="fill:#4d4d4d;fill-opacity:1;fill-rule:evenodd;stroke:#333333;stroke-width:0.5;stroke-linecap:round;stroke-linejoin:miter;stroke-miterlimit:4;stroke-opacity:1;stroke-dasharray:none;stroke-dashoffset:0"
         id="rect3939"
         width="35"
         height="7.0000176"
         x="40"
         y="927.36218" />
      <path
         style="fill:none;stroke:#ffffff;stroke-width:1px;stroke-linecap:butt;stroke-linejoin:miter;stroke-opacity:1"
         d="m 47,931.3622 19,0"
         id="path3941"
         inkscape:connector-curvature="0" />
      <path
         transform="translate(0,852.3622)"
         inkscape:connector-curvature="0"
         id="path3943"
         d="m 42,77 0,2 -1,1 4,0 -1,-1 0,-2 z"
         style="fill:none;stroke:#ffffff;stroke-width:0.5;stroke-linecap:butt;stroke-linejoin:round;stroke-miterlimit:4;stroke-opacity:1;stroke-dasharray:none" />
    </g>
  </g>
</svg>
