<?xml version="1.0" encoding="UTF-8" standalone="no"?>
<!-- Created with Inkscape (http://www.inkscape.org/) -->

<svg
   xmlns:dc="http://purl.org/dc/elements/1.1/"
   xmlns:cc="http://creativecommons.org/ns#"
   xmlns:rdf="http://www.w3.org/1999/02/22-rdf-syntax-ns#"
   xmlns:svg="http://www.w3.org/2000/svg"
   xmlns="http://www.w3.org/2000/svg"
   xmlns:xlink="http://www.w3.org/1999/xlink"
   xmlns:sodipodi="http://sodipodi.sourceforge.net/DTD/sodipodi-0.dtd"
   xmlns:inkscape="http://www.inkscape.org/namespaces/inkscape"
   width="200"
   height="200"
   id="svg2"
   version="1.1"
   inkscape:version="0.48.4 r9939"
   sodipodi:docname="icon.svg"
   inkscape:export-filename="/home/brecht/Documents/homecon/visualisation/icons/favicon.png"
   inkscape:export-xdpi="63"
   inkscape:export-ydpi="63">
  <defs
     id="defs4">
    <linearGradient
       id="linearGradient3909">
      <stop
         style="stop-color:#1a1a1a;stop-opacity:1;"
         offset="0"
         id="stop3911" />
      <stop
         style="stop-color:#1a1a1a;stop-opacity:0.81739128;"
         offset="1"
         id="stop3913" />
    </linearGradient>
    <clipPath
       clipPathUnits="userSpaceOnUse"
       id="clipPath3862">
      <path
         style="fill:none;stroke:#000000;stroke-width:1px;stroke-linecap:butt;stroke-linejoin:miter;stroke-opacity:1"
         d="m 75.726969,839.26105 -1.010153,38.84982 c 32.519104,7.15729 65.631184,13.45209 112.666484,-0.50508 l 0.50508,-38.89087 z"
         id="path3864"
         inkscape:connector-curvature="0"
         sodipodi:nodetypes="ccccc" />
    </clipPath>
    <linearGradient
       inkscape:collect="always"
       xlink:href="#linearGradient3909"
       id="linearGradient3915"
       x1="100"
       y1="160"
       x2="100"
       y2="10"
       gradientUnits="userSpaceOnUse" />
    <clipPath
       clipPathUnits="userSpaceOnUse"
       id="clipPath3041">
      <path
         sodipodi:nodetypes="cccccccccc"
         inkscape:connector-curvature="0"
         id="path3043"
         d="m 11.205384,886.90231 0,124.37749 125.344116,0 0,-36.24994 c 0.47735,-10.06309 6.87116,-34.88361 -2.82319,-35.97909 l -4.74898,0.21207 0,35.76656 -12.56664,0 0,-86.0331 C 93.167032,885.37266 41.807965,886.90231 11.205384,886.90231 z"
         style="fill:none;stroke:#000000;stroke-width:1.2759316px;stroke-linecap:butt;stroke-linejoin:miter;stroke-opacity:1" />
    </clipPath>
  </defs>
  <sodipodi:namedview
     id="base"
     pagecolor="#ffffff"
     bordercolor="#666666"
     borderopacity="1.0"
     inkscape:pageopacity="0.0"
     inkscape:pageshadow="2"
     inkscape:zoom="1.4"
     inkscape:cx="65.817167"
     inkscape:cy="31.501702"
     inkscape:document-units="px"
     inkscape:current-layer="layer1"
     showgrid="false"
     inkscape:snap-bbox="false"
     inkscape:window-width="660"
     inkscape:window-height="729"
     inkscape:window-x="54"
     inkscape:window-y="18"
     inkscape:window-maximized="0"
     inkscape:snap-nodes="true"
     inkscape:snap-grids="true"
     inkscape:object-paths="true"
     inkscape:object-nodes="true"
     borderlayer="true">
    <inkscape:grid
       type="xygrid"
       id="grid2985"
       empspacing="5"
       visible="true"
       enabled="true"
       snapvisiblegridlinesonly="true" />
  </sodipodi:namedview>
  <metadata
     id="metadata7">
    <rdf:RDF>
      <cc:Work
         rdf:about="">
        <dc:format>image/svg+xml</dc:format>
        <dc:type
           rdf:resource="http://purl.org/dc/dcmitype/StillImage" />
        <dc:title></dc:title>
      </cc:Work>
    </rdf:RDF>
  </metadata>
  <g
     inkscape:label="Layer 1"
     inkscape:groupmode="layer"
     id="layer1"
     transform="translate(0,-852.36218)">
    <g
       id="g3885"
       transform="matrix(0.90590048,0,0,0.90590048,9.3297603,90.424134)" />
    <rect
       style="fill:#1a1a1a;fill-opacity:1;stroke:none"
       id="rect3833"
       width="200"
       height="200"
       x="0"
       y="852.36224" />
    <g
       id="g3818"
       transform="matrix(1.4220304,0,0,1.4220304,-5.2302466,-397.65966)">
      <g
         id="g3802"
         transform="translate(7,-2.00002)">
        <path
           style="fill:#82564a;fill-opacity:1;stroke:none"
           d="m 125,942.3622 0,39.99979 -50,25.00021 0,-40.00013"
           id="path3804"
           inkscape:connector-curvature="0"
           sodipodi:nodetypes="cccc" />
        <path
           sodipodi:nodetypes="cccc"
           inkscape:connector-curvature="0"
           id="path3806"
           d="m 125,942.3622 0,19.99977 c -14.10014,16.26425 -34.788563,22.46873 -50,25.00021 l 0,-20.00011"
           style="fill:#b78e82;fill-opacity:1;stroke:none" />
        <path
           sodipodi:nodetypes="ccccc"
           inkscape:connector-curvature="0"
           id="path3808"
           d="m 125,982.36201 -50,25.00019 0,-40 50,-25 z"
           style="fill:none;stroke:#000000;stroke-width:1px;stroke-linecap:round;stroke-linejoin:round;stroke-opacity:1" />
      </g>
      <g
         transform="translate(2,-2e-5)"
         id="g3797">
        <path
           sodipodi:nodetypes="cccccccccc"
           inkscape:connector-curvature="0"
           id="path3782"
           d="m 45,917.36218 -31,17 c 0,0 0,27.56711 0,40 l 28,14 0,-28 14,7 0,28 20,10.00002 0,-40.00002 z"
           style="fill:#428a47;fill-opacity:1;stroke:none" />
        <path
           inkscape:connector-curvature="0"
           style="fill:#bcdfbf;fill-opacity:1;stroke:none"
           d="M 31.8125,80.5625 5,95.28125 5,105.5 c 6.486577,6.5961 15.100871,13.00372 24.21875,17.8125 l 0,-5.53125 12.125,6.0625 0,4.75 c 5.998199,2.0257 11.902204,3.09368 17.28125,2.84375 l 0,-9.34375 L 31.8125,80.5625 z"
           transform="matrix(1.155867,0,0,1.155867,8.220665,824.22985)"
           id="path3784" />
        <path
           style="fill:none;stroke:#000000;stroke-width:1px;stroke-linecap:butt;stroke-linejoin:round;stroke-opacity:1"
           d="m 45,917.36218 -31,17 0,40 28,14 0,-28 14,7 0,28 20,10.00002 0,-40.00002 z"
           id="path3757"
           inkscape:connector-curvature="0"
           sodipodi:nodetypes="cccccccccc" />
      </g>
      <g
         transform="translate(4.00001,-4)"
         id="g3777">
        <path
           style="fill:#4a5f82;fill-opacity:1;stroke:none"
           d="m 45,917.36218 31,48 50,-25 -31.000001,-43 z"
           id="path3000"
           inkscape:connector-curvature="0"
           sodipodi:nodetypes="ccccc" />
        <path
           sodipodi:nodetypes="ccccc"
           inkscape:connector-curvature="0"
           id="path3005"
           d="m 45,917.36218 17,26 c 20.8188,-4.44162 36.965931,-10.10516 49,-24 l -16,-22 z"
           style="fill:#b7c2d6;fill-opacity:1;stroke:none" />
        <path
           sodipodi:nodetypes="ccccc"
           inkscape:connector-curvature="0"
           id="path3007"
           d="m 45,917.36218 31,48 49.99999,-25 -30.999986,-43 z"
           style="fill:none;stroke:#000000;stroke-width:1px;stroke-linecap:butt;stroke-linejoin:round;stroke-opacity:1" />
      </g>
    </g>
  </g>
</svg>
