<?xml version="1.0" encoding="UTF-8" standalone="no"?>
<!-- Created with Inkscape (http://www.inkscape.org/) -->

<svg
   xmlns:dc="http://purl.org/dc/elements/1.1/"
   xmlns:cc="http://creativecommons.org/ns#"
   xmlns:rdf="http://www.w3.org/1999/02/22-rdf-syntax-ns#"
   xmlns:svg="http://www.w3.org/2000/svg"
   xmlns="http://www.w3.org/2000/svg"
   xmlns:xlink="http://www.w3.org/1999/xlink"
   xmlns:sodipodi="http://sodipodi.sourceforge.net/DTD/sodipodi-0.dtd"
   xmlns:inkscape="http://www.inkscape.org/namespaces/inkscape"
   width="200mm"
   height="100mm"
   viewBox="0 0 708.66142 354.33071"
   id="svg2"
   version="1.1"
   inkscape:version="0.91 r13725"
   sodipodi:docname="text.svg">
  <defs
     id="defs4">
    <linearGradient
       id="linearGradient4913"
       inkscape:collect="always">
      <stop
         id="stop4915"
         offset="0"
         style="stop-color:#999999;stop-opacity:1" />
      <stop
         id="stop4917"
         offset="1"
         style="stop-color:#ececec;stop-opacity:1" />
    </linearGradient>
    <radialGradient
       inkscape:collect="always"
       xlink:href="#linearGradient5198"
       id="radialGradient4863"
       cx="45.738625"
       cy="918.81879"
       fx="45.738625"
       fy="918.81879"
       r="36.816406"
       gradientTransform="matrix(2.0000001,-1.8902464e-6,2.7571648e-6,2.9418117,-45.741162,-1766.8359)"
       gradientUnits="userSpaceOnUse" />
    <radialGradient
       inkscape:collect="always"
       xlink:href="#linearGradient5198"
       id="radialGradient4871"
       cx="136.11337"
       cy="921.09302"
       fx="136.11337"
       fy="921.09302"
       r="39.315796"
       gradientTransform="matrix(2.0000001,0.00812923,-0.01150856,2.8314028,-125.51293,-1671.5893)"
       gradientUnits="userSpaceOnUse" />
    <radialGradient
       inkscape:collect="always"
       xlink:href="#linearGradient5198"
       id="radialGradient4879"
       cx="232.06979"
       cy="932.66461"
       fx="232.06979"
       fy="932.66461"
       r="50.662231"
       gradientTransform="matrix(1.9869286,-3.1068677e-7,3.4927543e-7,2.1378644,-229.03664,-1057.7545)"
       gradientUnits="userSpaceOnUse" />
    <radialGradient
       inkscape:collect="always"
       xlink:href="#linearGradient5198"
       id="radialGradient4887"
       cx="353.28256"
       cy="914.93085"
       fx="353.28256"
       fy="914.93085"
       r="32.928467"
       gradientTransform="matrix(2.0000001,-4.9609374e-7,8.1586491e-7,3.2891563,-353.28336,-2073.1945)"
       gradientUnits="userSpaceOnUse" />
    <radialGradient
       inkscape:collect="always"
       xlink:href="#linearGradient4913"
       id="radialGradient4895"
       cx="426.83603"
       cy="921.2785"
       fx="426.83603"
       fy="921.2785"
       r="39.276119"
       gradientTransform="matrix(2.0000003,-1.1365369e-7,1.6152595e-7,2.8424238,-426.83631,-1680.8418)"
       gradientUnits="userSpaceOnUse" />
    <radialGradient
       inkscape:collect="always"
       xlink:href="#linearGradient4913"
       id="radialGradient4903"
       cx="515.38586"
       cy="921.31818"
       fx="515.38586"
       fy="921.31818"
       r="39.315796"
       gradientTransform="matrix(1.9999993,-8.9004509e-7,1.2636671e-6,2.8395566,-515.38668,-1678.3125)"
       gradientUnits="userSpaceOnUse" />
    <radialGradient
       inkscape:collect="always"
       xlink:href="#linearGradient4913"
       id="radialGradient4911"
       cx="609.80725"
       cy="918.34271"
       fx="609.80725"
       fy="918.34271"
       r="36.340328"
       gradientTransform="matrix(1.9999995,8.7380622e-7,-1.302124e-6,2.9803489,-609.80577,-1800.8264)"
       gradientUnits="userSpaceOnUse" />
    <filter
       inkscape:collect="always"
       style="color-interpolation-filters:sRGB"
       id="filter5016"
       x="-0.035259813"
       width="1.0705196"
       y="-0.20110875"
       height="1.4022175">
      <feGaussianBlur
         inkscape:collect="always"
         stdDeviation="9.3548583"
         id="feGaussianBlur5018" />
    </filter>
    <linearGradient
       id="linearGradient5198"
       inkscape:collect="always">
      <stop
         id="stop5200"
         offset="0"
         style="stop-color:#d77b00;stop-opacity:1" />
      <stop
         style="stop-color:#ffa625;stop-opacity:1"
         offset="0.5"
         id="stop5202" />
      <stop
         id="stop5204"
         offset="1"
         style="stop-color:#ffc234;stop-opacity:1" />
    </linearGradient>
  </defs>
  <sodipodi:namedview
     id="base"
     pagecolor="#ffffff"
     bordercolor="#666666"
     borderopacity="1.0"
     inkscape:pageopacity="0.0"
     inkscape:pageshadow="2"
     inkscape:zoom="0.70710678"
     inkscape:cx="380.49018"
     inkscape:cy="63.095392"
     inkscape:document-units="mm"
     inkscape:current-layer="layer2"
     showgrid="false"
     inkscape:window-width="1861"
     inkscape:window-height="1056"
     inkscape:window-x="59"
     inkscape:window-y="24"
     inkscape:window-maximized="1"
     inkscape:snap-bbox="true"
     inkscape:bbox-paths="false"
     inkscape:bbox-nodes="true">
    <inkscape:grid
       type="xygrid"
       id="grid4136"
       units="mm"
       spacingx="3.5433071"
       spacingy="3.5433072"
       empspacing="10" />
  </sodipodi:namedview>
  <metadata
     id="metadata7">
    <rdf:RDF>
      <cc:Work
         rdf:about="">
        <dc:format>image/svg+xml</dc:format>
        <dc:type
           rdf:resource="http://purl.org/dc/dcmitype/StillImage" />
        <dc:title />
      </cc:Work>
    </rdf:RDF>
  </metadata>
  <g
     inkscape:groupmode="layer"
     id="layer2"
     inkscape:label="background"
     sodipodi:insensitive="true"
     style="display:none">
    <rect
       style="opacity:1;fill:#000000;fill-opacity:1;stroke:#000000;stroke-width:0;stroke-linejoin:round;stroke-miterlimit:4;stroke-dasharray:none;stroke-dashoffset:0;stroke-opacity:1"
       id="rect4834"
       width="708.6615"
       height="354.33072"
       x="4.8074135e-06"
       y="6.4294313e-06" />
  </g>
  <g
     inkscape:groupmode="layer"
     id="layer3"
     inkscape:label="light"
     sodipodi:insensitive="true">
    <g
       transform="translate(-9.7825299,-704.83703)"
       id="g4920"
       style="font-style:normal;font-weight:normal;font-size:40px;line-height:125%;font-family:sans-serif;letter-spacing:0px;word-spacing:0px;fill:#ffffff;fill-opacity:1;stroke:none;stroke-width:1px;stroke-linecap:butt;stroke-linejoin:miter;stroke-opacity:1;filter:url(#filter5016)">
      <path
         id="path4922"
         style="font-style:normal;font-variant:normal;font-weight:normal;font-stretch:condensed;font-size:162.5px;font-family:'Franklin Gothic Demi Cond';-inkscape-font-specification:'Franklin Gothic Demi Cond Condensed';fill:#ffc234;fill-opacity:1"
         d="m 45.738625,827.84894 23.803711,0 0,43.71948 26.02539,0 0,-43.71948 23.803714,0 0,108.30688 -23.803714,0 0,-44.2749 -26.02539,0 0,44.2749 -23.803711,0 0,-108.30688 z"
         inkscape:connector-curvature="0" />
      <path
         id="path4924"
         style="font-style:normal;font-variant:normal;font-weight:normal;font-stretch:condensed;font-size:162.5px;font-family:'Franklin Gothic Demi Cond';-inkscape-font-specification:'Franklin Gothic Demi Cond Condensed';fill:#ffc234;fill-opacity:1"
         d="m 214.74497,881.96271 q 0,55.85937 -39.27612,55.85937 -19.51904,0 -29.43726,-14.20288 -9.91821,-14.28222 -9.91821,-41.65649 0,-55.78003 39.27612,-55.78003 19.20166,0 29.27857,13.96484 10.0769,13.96485 10.0769,41.81519 z m -25.07324,0 q 0,-21.89942 -3.41187,-29.11988 -3.41186,-7.2998 -10.87036,-7.2998 -7.37915,0 -10.79101,7.2998 -3.41187,7.29981 -3.41187,29.11988 0,21.42334 3.33252,28.96118 3.41187,7.53784 10.87036,7.53784 7.37915,0 10.79102,-7.22046 3.49121,-7.22046 3.49121,-29.27856 z"
         inkscape:connector-curvature="0" />
      <path
         id="path4926"
         style="font-style:normal;font-variant:normal;font-weight:normal;font-stretch:condensed;font-size:162.5px;font-family:'Franklin Gothic Demi Cond';-inkscape-font-specification:'Franklin Gothic Demi Cond Condensed';fill:#ffc234;fill-opacity:1"
         d="m 231.40757,827.84894 34.91211,0 15.31372,66.88843 17.21802,-66.88843 33.88061,0 0,108.30688 -22.29614,0 0,-90.69214 -22.13745,90.69214 -17.29736,0 -20.23316,-90.69214 0,90.69214 -19.36035,0 0,-108.30688 z"
         inkscape:connector-curvature="0" />
      <path
         id="path4928"
         style="font-style:normal;font-variant:normal;font-weight:normal;font-stretch:condensed;font-size:162.5px;font-family:'Franklin Gothic Demi Cond';-inkscape-font-specification:'Franklin Gothic Demi Cond Condensed';fill:#ffc234;fill-opacity:1"
         d="m 353.28257,827.84894 65.85693,0 0,18.56689 -42.05322,0 0,25.15259 32.69043,0 0,18.64624 -32.69043,0 0,26.58081 42.05322,0 0,19.36035 -65.85693,0 0,-108.30688 z"
         inkscape:connector-curvature="0" />
      <path
         id="path4930"
         style="font-style:normal;font-variant:normal;font-weight:normal;font-stretch:condensed;font-size:162.5px;font-family:'Franklin Gothic Demi Cond';-inkscape-font-specification:'Franklin Gothic Demi Cond Condensed';fill:#ffffff;fill-opacity:1"
         d="m 483.40952,896.72101 21.97876,1.34888 q -1.19018,17.61474 -11.18774,28.72314 -9.99756,11.02905 -26.42212,11.02905 -19.99512,0 -30.46875,-14.83764 -10.47363,-14.83765 -10.47363,-40.86304 0,-26.26343 10.39428,-41.10108 10.39429,-14.83764 30.86548,-14.83764 33.88062,0 36.89575,41.89453 l -21.74072,1.58691 q -0.8728,-24.12109 -15.07568,-24.12109 -7.4585,0 -11.90186,7.77588 -4.36401,7.77588 -4.36401,30.15137 0,19.99511 4.04663,27.53295 4.04663,7.4585 12.13989,7.4585 13.0127,0 15.31372,-21.74072 z"
         inkscape:connector-curvature="0" />
      <path
         id="path4932"
         style="font-style:normal;font-variant:normal;font-weight:normal;font-stretch:condensed;font-size:162.5px;font-family:'Franklin Gothic Demi Cond';-inkscape-font-specification:'Franklin Gothic Demi Cond Condensed';fill:#ffffff;fill-opacity:1"
         d="m 594.01743,881.96271 q 0,55.85937 -39.27612,55.85937 -19.51904,0 -29.43726,-14.20288 -9.91821,-14.28222 -9.91821,-41.65649 0,-55.78003 39.27612,-55.78003 19.20166,0 29.27857,13.96484 10.0769,13.96485 10.0769,41.81519 z m -25.07324,0 q 0,-21.89942 -3.41186,-29.11988 -3.41187,-7.2998 -10.87037,-7.2998 -7.37915,0 -10.79101,7.2998 -3.41187,7.29981 -3.41187,29.11988 0,21.42334 3.33252,28.96118 3.41187,7.53784 10.87036,7.53784 7.37915,0 10.79102,-7.22046 3.49121,-7.22046 3.49121,-29.27856 z"
         inkscape:connector-curvature="0" />
      <path
         id="path4934"
         style="font-style:normal;font-variant:normal;font-weight:normal;font-stretch:condensed;font-size:162.5px;font-family:'Franklin Gothic Demi Cond';-inkscape-font-specification:'Franklin Gothic Demi Cond Condensed';fill:#ffffff;fill-opacity:1"
         d="m 609.80723,827.84894 26.42212,0 27.85034,67.28515 0,-67.28515 18.4082,0 0,108.30688 -21.26465,0 -33.00781,-78.39355 0,78.39355 -18.4082,0 0,-108.30688 z"
         inkscape:connector-curvature="0" />
    </g>
  </g>
  <g
     inkscape:label="text"
     inkscape:groupmode="layer"
     id="layer1"
     transform="translate(0,-698.0315)"
     style="display:inline"
     sodipodi:insensitive="true">
    <g
       style="font-style:normal;font-weight:normal;font-size:40px;line-height:125%;font-family:sans-serif;letter-spacing:0px;word-spacing:0px;fill:#cccccc;fill-opacity:1;stroke:none;stroke-width:1px;stroke-linecap:butt;stroke-linejoin:miter;stroke-opacity:1"
       id="text4730"
       transform="translate(-9.7825488,-6.8055257)">
      <path
         d="m 45.738625,827.84894 23.803711,0 0,43.71948 26.02539,0 0,-43.71948 23.803714,0 0,108.30688 -23.803714,0 0,-44.2749 -26.02539,0 0,44.2749 -23.803711,0 0,-108.30688 z"
         style="font-style:normal;font-variant:normal;font-weight:normal;font-stretch:condensed;font-size:162.5px;font-family:'Franklin Gothic Demi Cond';-inkscape-font-specification:'Franklin Gothic Demi Cond Condensed';fill:url(#radialGradient4863);fill-opacity:1"
         id="path4843"
         inkscape:connector-curvature="0" />
      <path
         d="m 214.74497,881.96271 q 0,55.85937 -39.27612,55.85937 -19.51904,0 -29.43726,-14.20288 -9.91821,-14.28222 -9.91821,-41.65649 0,-55.78003 39.27612,-55.78003 19.20166,0 29.27857,13.96484 10.0769,13.96485 10.0769,41.81519 z m -25.07324,0 q 0,-21.89942 -3.41187,-29.11988 -3.41186,-7.2998 -10.87036,-7.2998 -7.37915,0 -10.79101,7.2998 -3.41187,7.29981 -3.41187,29.11988 0,21.42334 3.33252,28.96118 3.41187,7.53784 10.87036,7.53784 7.37915,0 10.79102,-7.22046 3.49121,-7.22046 3.49121,-29.27856 z"
         style="font-style:normal;font-variant:normal;font-weight:normal;font-stretch:condensed;font-size:162.5px;font-family:'Franklin Gothic Demi Cond';-inkscape-font-specification:'Franklin Gothic Demi Cond Condensed';fill:url(#radialGradient4871);fill-opacity:1"
         id="path4845"
         inkscape:connector-curvature="0" />
      <path
         d="m 231.40757,827.84894 34.91211,0 15.31372,66.88843 17.21802,-66.88843 33.88061,0 0,108.30688 -22.29614,0 0,-90.69214 -22.13745,90.69214 -17.29736,0 -20.23316,-90.69214 0,90.69214 -19.36035,0 0,-108.30688 z"
         style="font-style:normal;font-variant:normal;font-weight:normal;font-stretch:condensed;font-size:162.5px;font-family:'Franklin Gothic Demi Cond';-inkscape-font-specification:'Franklin Gothic Demi Cond Condensed';fill:url(#radialGradient4879);fill-opacity:1"
         id="path4847"
         inkscape:connector-curvature="0" />
      <path
         d="m 353.28257,827.84894 65.85693,0 0,18.56689 -42.05322,0 0,25.15259 32.69043,0 0,18.64624 -32.69043,0 0,26.58081 42.05322,0 0,19.36035 -65.85693,0 0,-108.30688 z"
         style="font-style:normal;font-variant:normal;font-weight:normal;font-stretch:condensed;font-size:162.5px;font-family:'Franklin Gothic Demi Cond';-inkscape-font-specification:'Franklin Gothic Demi Cond Condensed';fill:url(#radialGradient4887);fill-opacity:1"
         id="path4849"
         inkscape:connector-curvature="0" />
      <path
         d="m 483.40952,896.72101 21.97876,1.34888 q -1.19018,17.61474 -11.18774,28.72314 -9.99756,11.02905 -26.42212,11.02905 -19.99512,0 -30.46875,-14.83764 -10.47363,-14.83765 -10.47363,-40.86304 0,-26.26343 10.39428,-41.10108 10.39429,-14.83764 30.86548,-14.83764 33.88062,0 36.89575,41.89453 l -21.74072,1.58691 q -0.8728,-24.12109 -15.07568,-24.12109 -7.4585,0 -11.90186,7.77588 -4.36401,7.77588 -4.36401,30.15137 0,19.99511 4.04663,27.53295 4.04663,7.4585 12.13989,7.4585 13.0127,0 15.31372,-21.74072 z"
         style="font-style:normal;font-variant:normal;font-weight:normal;font-stretch:condensed;font-size:162.5px;font-family:'Franklin Gothic Demi Cond';-inkscape-font-specification:'Franklin Gothic Demi Cond Condensed';fill:url(#radialGradient4895);fill-opacity:1"
         id="path4851"
         inkscape:connector-curvature="0" />
      <path
         d="m 594.01743,881.96271 q 0,55.85937 -39.27612,55.85937 -19.51904,0 -29.43726,-14.20288 -9.91821,-14.28222 -9.91821,-41.65649 0,-55.78003 39.27612,-55.78003 19.20166,0 29.27857,13.96484 10.0769,13.96485 10.0769,41.81519 z m -25.07324,0 q 0,-21.89942 -3.41186,-29.11988 -3.41187,-7.2998 -10.87037,-7.2998 -7.37915,0 -10.79101,7.2998 -3.41187,7.29981 -3.41187,29.11988 0,21.42334 3.33252,28.96118 3.41187,7.53784 10.87036,7.53784 7.37915,0 10.79102,-7.22046 3.49121,-7.22046 3.49121,-29.27856 z"
         style="font-style:normal;font-variant:normal;font-weight:normal;font-stretch:condensed;font-size:162.5px;font-family:'Franklin Gothic Demi Cond';-inkscape-font-specification:'Franklin Gothic Demi Cond Condensed';fill:url(#radialGradient4903);fill-opacity:1"
         id="path4853"
         inkscape:connector-curvature="0" />
      <path
         d="m 609.80723,827.84894 26.42212,0 27.85034,67.28515 0,-67.28515 18.4082,0 0,108.30688 -21.26465,0 -33.00781,-78.39355 0,78.39355 -18.4082,0 0,-108.30688 z"
         style="font-style:normal;font-variant:normal;font-weight:normal;font-stretch:condensed;font-size:162.5px;font-family:'Franklin Gothic Demi Cond';-inkscape-font-specification:'Franklin Gothic Demi Cond Condensed';fill:url(#radialGradient4911);fill-opacity:1"
         id="path4855"
         inkscape:connector-curvature="0" />
    </g>
  </g>
</svg>
