<?xml version="1.0" encoding="UTF-8" standalone="no"?>
<svg
   xmlns:dc="http://purl.org/dc/elements/1.1/"
   xmlns:cc="http://creativecommons.org/ns#"
   xmlns:rdf="http://www.w3.org/1999/02/22-rdf-syntax-ns#"
   xmlns:svg="http://www.w3.org/2000/svg"
   xmlns="http://www.w3.org/2000/svg"
   xmlns:sodipodi="http://sodipodi.sourceforge.net/DTD/sodipodi-0.dtd"
   xmlns:inkscape="http://www.inkscape.org/namespaces/inkscape"
   viewBox="20 20 321 321"
   id="svg2"
   version="1.1"
   inkscape:version="0.48.2 r9819"
   width="100%"
   height="100%"
   sodipodi:docname="control_alarm.svg"
   inkscape:export-filename="D:\Personal\Brecht\KNXControl\visualisation\icons\ws\control_alarm.png"
   inkscape:export-xdpi="35.887852"
   inkscape:export-ydpi="35.887852">
  <metadata
     id="metadata20">
    <rdf:RDF>
      <cc:Work
         rdf:about="">
        <dc:format>image/svg+xml</dc:format>
        <dc:type
           rdf:resource="http://purl.org/dc/dcmitype/StillImage" />
        <dc:title></dc:title>
      </cc:Work>
    </rdf:RDF>
  </metadata>
  <defs
     id="defs18" />
  <sodipodi:namedview
     pagecolor="#000000fff"
     bordercolor="#666666"
     borderopacity="1"
     objecttolerance="10"
     gridtolerance="10"
     guidetolerance="10"
     inkscape:pageopacity="0"
     inkscape:pageshadow="2"
     inkscape:window-width="1366"
     inkscape:window-height="706"
     id="namedview16"
     showgrid="false"
     inkscape:zoom="1.0397333"
     inkscape:cx="47.810786"
     inkscape:cy="165.08083"
     inkscape:window-x="-8"
     inkscape:window-y="-8"
     inkscape:window-maximized="1"
     inkscape:current-layer="g3820">
    <inkscape:grid
       type="xygrid"
       id="grid3812" />
  </sodipodi:namedview>
  <g
     fill="#000000"
     id="g4"
     style="fill:none;stroke:#000000fff;stroke-opacity:1">
    <g
       id="g3820"
       transform="matrix(0.94895506,0,0,0.94895506,-303.46708,14.255876)"
       style="fill:none;stroke:#000000;stroke-opacity:1">
      <path
         transform="matrix(1.3261971,0,0,1.3258336,-137.00581,-87.934893)"
         d="m 547.25571,203.90266 a 59.390228,59.390228 0 1 1 -118.78046,0 59.390228,59.390228 0 1 1 118.78046,0 z"
         sodipodi:ry="59.390228"
         sodipodi:rx="59.390228"
         sodipodi:cy="203.90266"
         sodipodi:cx="487.86548"
         id="path3034"
         style="fill:none;stroke:#000000fff;stroke-width:9.53645706;stroke-linecap:round;stroke-linejoin:round;stroke-miterlimit:3.57142854;stroke-opacity:1;stroke-dasharray:none;stroke-dashoffset:0"
         sodipodi:type="arc" />
      <path
         inkscape:connector-curvature="0"
         id="path3804"
         d="m 452.16284,239.6463 c -27.90133,27.89369 -25.57622,25.56922 -25.57622,25.56922"
         style="fill:none;stroke:#000000fff;stroke-width:12.64548779;stroke-linecap:round;stroke-linejoin:miter;stroke-miterlimit:3.57142854;stroke-opacity:1;stroke-dasharray:none" />
      <path
         style="fill:none;stroke:#000000fff;stroke-width:12.64548779;stroke-linecap:round;stroke-linejoin:miter;stroke-miterlimit:3.57142854;stroke-opacity:1;stroke-dasharray:none"
         d="m 567.25586,239.6463 c 27.90133,27.89369 25.57623,25.56922 25.57623,25.56922"
         id="path3806"
         inkscape:connector-curvature="0" />
      <path
         sodipodi:nodetypes="cc"
         inkscape:connector-curvature="0"
         id="path3808"
         d="m 510,131.45814 0,50.7535"
         style="fill:none;stroke:#000000fff;stroke-width:12.64548779;stroke-linecap:round;stroke-linejoin:miter;stroke-miterlimit:3.57142854;stroke-opacity:1;stroke-dasharray:none" />
      <path
         style="fill:none;stroke:#000000fff;stroke-width:12.64548779;stroke-linecap:round;stroke-linejoin:miter;stroke-miterlimit:3.57142854;stroke-opacity:1;stroke-dasharray:none"
         d="m 510,182.21164 c -21.55347,21.54757 -19.75736,19.75194 -19.75736,19.75194"
         id="path3810"
         inkscape:connector-curvature="0" />
      <path
         inkscape:connector-curvature="0"
         id="path3814"
         d="m 429.59108,126.41985 c -2.44806,-2.69605 -4.46082,-6.43634 -5.55176,-10.31674 -0.576,-2.04887 -0.8064,-8.04976 -0.39256,-10.22504 1.05721,-5.55708 3.58367,-10.116875 7.78487,-14.050247 3.18435,-2.981345 6.56992,-4.855744 10.97785,-6.07784 2.08628,-0.578409 7.82078,-0.788637 10.36863,-0.380108 4.80892,0.771067 9.4867,3.077838 13.05855,6.439616 1.33767,1.258997 3.75285,4.058442 3.75285,4.349946 0,0.108901 -0.62717,0.416525 -1.39369,0.683546 -14.02875,4.887027 -26.8941,15.180687 -34.8101,27.851827 -0.95195,1.52379 -1.8314,2.93593 -1.95433,3.13808 -0.16876,0.27748 -0.61958,-0.0686 -1.84031,-1.41304 z"
         style="fill:none;stroke:#000000fff;stroke-width:12.64548779;stroke-linecap:round;stroke-linejoin:round;stroke-miterlimit:3.57142854;stroke-opacity:1;stroke-dasharray:none;stroke-dashoffset:0" />
      <path
         style="fill:none;stroke:#000000fff;stroke-width:12.64548779;stroke-linecap:round;stroke-linejoin:round;stroke-miterlimit:3.57142854;stroke-opacity:1;stroke-dasharray:none;stroke-dashoffset:0"
         d="m 590.40893,126.41985 c 2.44806,-2.69605 4.46082,-6.43634 5.55176,-10.31674 0.576,-2.04887 0.8064,-8.04976 0.39257,-10.22504 -1.05722,-5.55708 -3.58366,-10.116875 -7.78488,-14.050247 -3.18435,-2.981345 -6.56991,-4.855744 -10.97785,-6.07784 -2.08628,-0.578409 -7.82078,-0.788637 -10.36863,-0.380108 -4.80892,0.771067 -9.4867,3.077838 -13.05854,6.439616 -1.33768,1.258997 -3.75286,4.058442 -3.75286,4.349946 0,0.108901 0.62717,0.416525 1.39369,0.683546 14.02875,4.887027 26.8941,15.180687 34.8101,27.851827 0.95195,1.52379 1.83141,2.93593 1.95433,3.13808 0.16876,0.27748 0.61959,-0.0686 1.84031,-1.41304 z"
         id="path3818"
         inkscape:connector-curvature="0" />
    </g>
  </g>
</svg>
