<?xml version="1.0" encoding="UTF-8" standalone="no"?>
<!-- Created with Inkscape (http://www.inkscape.org/) -->

<svg
   xmlns:dc="http://purl.org/dc/elements/1.1/"
   xmlns:cc="http://creativecommons.org/ns#"
   xmlns:rdf="http://www.w3.org/1999/02/22-rdf-syntax-ns#"
   xmlns:svg="http://www.w3.org/2000/svg"
   xmlns="http://www.w3.org/2000/svg"
   xmlns:sodipodi="http://sodipodi.sourceforge.net/DTD/sodipodi-0.dtd"
   xmlns:inkscape="http://www.inkscape.org/namespaces/inkscape"
   width="200"
   height="200"
   id="svg3009"
   version="1.1"
   inkscape:version="0.48.2 r9819"
   sodipodi:docname="users.svg">
  <defs
     id="defs3011" />
  <sodipodi:namedview
     id="base"
     pagecolor="#ffffff"
     bordercolor="#666666"
     borderopacity="1.0"
     inkscape:pageopacity="0.0"
     inkscape:pageshadow="2"
     inkscape:zoom="2.8"
     inkscape:cx="62.311554"
     inkscape:cy="127.25485"
     inkscape:document-units="px"
     inkscape:current-layer="g3004"
     showgrid="false"
     units="px"
     inkscape:window-width="1280"
     inkscape:window-height="962"
     inkscape:window-x="-8"
     inkscape:window-y="-8"
     inkscape:window-maximized="1"
     showguides="true"
     inkscape:guide-bbox="true">
    <inkscape:grid
       type="xygrid"
       id="grid3017"
       empspacing="5"
       visible="true"
       enabled="true"
       snapvisiblegridlinesonly="true"
       units="px"
       spacingx="1px"
       spacingy="1px"
       dotted="false" />
  </sodipodi:namedview>
  <metadata
     id="metadata3014">
    <rdf:RDF>
      <cc:Work
         rdf:about="">
        <dc:format>image/svg+xml</dc:format>
        <dc:type
           rdf:resource="http://purl.org/dc/dcmitype/StillImage" />
        <dc:title></dc:title>
        <dc:creator>
          <cc:Agent>
            <dc:title>Brecht Baeten</dc:title>
          </cc:Agent>
        </dc:creator>
        <dc:rights>
          <cc:Agent>
            <dc:title>Copyright Brecht Baeten</dc:title>
          </cc:Agent>
        </dc:rights>
        <dc:description />
        <cc:license
           rdf:resource="http://www.gnu.org/copyleft/gpl.html" />
      </cc:Work>
    </rdf:RDF>
  </metadata>
  <g
     inkscape:label="Layer 1"
     inkscape:groupmode="layer"
     id="layer1"
     transform="translate(0,-852.3622)">
    <g
       id="g3004"
       transform="translate(-7.4808372,-2.1273425)">
      <path
         sodipodi:nodetypes="cssccccsccssc"
         transform="translate(0,852.3622)"
         inkscape:connector-curvature="0"
         id="path2996"
         d="M 91.987016,65.586577 C 89.930034,63.323458 86.197908,59.764015 70.535714,61.428571 58.839193,62.671661 46.32345,71.733514 42.5,82.857143 35.850335,102.20313 42.74895,119.70548 40.892857,144.46428 51.402885,133.99636 58.152283,128.59895 66.25,126.25 54.514822,116.87088 51.852587,113.57278 49.107143,103.03571 58.176631,93.032262 82.773967,88.483482 91.964286,78.214286 100.82835,79.821379 108.35756,90.129813 109.10714,99.107143 110.00344,109.84163 102.76639,120.09174 95,126.07143 c 9.08175,3.13142 14.64135,7.37465 24.28572,21.78571 -1.95025,-33.01998 -3.59896,-37.37593 -2.32143,-59.464283 0.54235,-9.377217 -8.63928,-18.150215 -16.96429,-22.5 -2.369057,-1.237823 -5.0005,-1.428585 -8.012984,-0.30628 z"
         style="fill:#000000;stroke:#000000;stroke-width:1px;stroke-linecap:butt;stroke-linejoin:miter;stroke-opacity:1" />
      <path
         sodipodi:nodetypes="ssssscccscccccs"
         transform="translate(0,852.3622)"
         inkscape:connector-curvature="0"
         id="path2998"
         d="m 30.535714,162.67857 c -0.29924,1.40194 -0.867307,3.54026 0.357143,4.28572 9.905275,6.03049 32.545705,9.68364 49.285714,9.64285 16.938318,-0.0413 41.477089,-4.02818 49.821429,-10 1.21398,-0.86881 0.7117,-3.01415 0.35714,-4.46428 -1.38215,-5.65294 -7.65796,-13.18992 -7.65796,-13.18992 l -1.60714,6.97915 c -11.97005,-16.35818 -18.8048,-26.26113 -31.188463,-28.5368 6.851468,-7.66911 11.435743,-9.98756 16.157263,-21.49524 1.26769,-3.08972 -1.42555,-18.847413 -12.408155,-23.35101 -9.873495,9.608214 -28.669014,14.209919 -40.383039,21.9865 3.735671,11.83251 10.020289,13.29014 20.01237,23.31252 -17.128629,6.16449 -22.868724,12.44429 -31.233759,21.68129 -1.863649,-0.68356 -3.409922,-1.55221 -3.409922,-1.55221 0,0 -6.934599,9.22922 -8.102621,14.70143 z"
         style="fill:#000000;stroke:#000000;stroke-width:1px;stroke-linecap:butt;stroke-linejoin:miter;stroke-opacity:1" />
      <path
         sodipodi:nodetypes="ccssccssssccsscc"
         transform="translate(0,852.3622)"
         inkscape:connector-curvature="0"
         id="path3000"
         d="m 128.86915,150.71429 c 22.31539,-1.53531 42.88181,-6.85929 55.95228,-17.5 -0.55935,-8.8926 0.69092,-19.92778 -2.74356,-28.12238 -2.8184,-6.724627 -7.53839,-10.545931 -13.50644,-14.734767 -5.94414,-4.172052 -14.55381,-7.035632 -21.875,-8.482143 3.22488,-9.993392 2.84167,-16.841152 3.125,-27.321429 -5.34435,-2.651926 -5.83822,-8.222896 -7.14286,-8.482143 -2.89861,-0.575987 -5.61641,3.074685 -8.57143,3.035715 -4.88678,-0.06445 -8.90185,-5.102906 -13.57142,-3.660714 -4.32385,1.335417 -2.03291,4.033464 -4.73215,7.946428 -1.06758,1.547609 -2.65386,2.309085 -4.55357,2.589286 -0.48794,6.712067 -0.4456,9.428168 -4.64285,10.089285 5.56212,3.996865 7.51569,5.080346 10.71428,10.714286 3.90976,6.886565 2.87884,7.462979 3.04363,23.751236 0.14271,14.10561 0.92756,26.5801 2.24484,42.38943 3.19034,2.91538 4.44005,4.59937 6.25925,7.78791 z"
         style="fill:#000000;stroke:#000000;stroke-width:1px;stroke-linecap:butt;stroke-linejoin:miter;stroke-opacity:1" />
      <path
         sodipodi:nodetypes="csscscscssssc"
         transform="translate(0,852.3622)"
         inkscape:connector-curvature="0"
         id="path3002"
         d="m 150.17857,50.357143 c 0.27098,-3.50511 0.306,-11.256457 -4.82143,-15.089286 -9.11825,-6.816018 -17.14482,-7.829793 -26.25,-7.589286 -10.00102,0.26417 -16.41431,3.419571 -16.51785,9.732143 -4.686589,-0.408324 -5.115039,7.701578 -5.714289,12.857143 -0.443697,3.817276 0.728717,9.618271 1.428571,11.875 3.001598,-0.329339 7.753868,2.398009 8.482138,-0.446429 0.71026,-2.774088 0.46237,-6.125852 1.07142,-9.107143 2.81694,-0.484621 5.1354,-1.215454 5.35714,-3.392857 0.4016,-3.943617 3.27536,-8.563864 7.58928,-8.660714 4.54917,-0.10213 8.97015,4.635677 13.57143,4.821428 3.27601,0.132251 5.80312,-4.1156 8.92857,-3.124999 3.46939,1.099615 3.13702,5.479513 6.87502,8.125 z"
         style="fill:#000000;stroke:#000000;stroke-width:1px;stroke-linecap:butt;stroke-linejoin:miter;stroke-opacity:1" />
    </g>
  </g>
</svg>
