<?xml version="1.0" encoding="UTF-8" standalone="no"?>
<!-- Created with Inkscape (http://www.inkscape.org/) -->

<svg
   xmlns:dc="http://purl.org/dc/elements/1.1/"
   xmlns:cc="http://creativecommons.org/ns#"
   xmlns:rdf="http://www.w3.org/1999/02/22-rdf-syntax-ns#"
   xmlns:svg="http://www.w3.org/2000/svg"
   xmlns="http://www.w3.org/2000/svg"
   xmlns:sodipodi="http://sodipodi.sourceforge.net/DTD/sodipodi-0.dtd"
   xmlns:inkscape="http://www.inkscape.org/namespaces/inkscape"
   width="200"
   height="200"
   id="svg3009"
   version="1.1"
   inkscape:version="0.48.2 r9819"
   sodipodi:docname="home_www.svg">
  <defs
     id="defs3011" />
  <sodipodi:namedview
     id="base"
     pagecolor="#ffffff"
     bordercolor="#666666"
     borderopacity="1.0"
     inkscape:pageopacity="0.0"
     inkscape:pageshadow="2"
     inkscape:zoom="2.8284271"
     inkscape:cx="48.748515"
     inkscape:cy="124.03595"
     inkscape:document-units="px"
     inkscape:current-layer="layer1"
     showgrid="true"
     units="px"
     inkscape:window-width="1280"
     inkscape:window-height="962"
     inkscape:window-x="-8"
     inkscape:window-y="-8"
     inkscape:window-maximized="1"
     showguides="true"
     inkscape:guide-bbox="true">
    <inkscape:grid
       type="xygrid"
       id="grid3017"
       empspacing="5"
       visible="true"
       enabled="true"
       snapvisiblegridlinesonly="true"
       units="px"
       spacingx="1px"
       spacingy="1px"
       dotted="false" />
  </sodipodi:namedview>
  <metadata
     id="metadata3014">
    <rdf:RDF>
      <cc:Work
         rdf:about="">
        <dc:format>image/svg+xml</dc:format>
        <dc:type
           rdf:resource="http://purl.org/dc/dcmitype/StillImage" />
        <dc:title />
        <dc:creator>
          <cc:Agent>
            <dc:title>Brecht Baeten</dc:title>
          </cc:Agent>
        </dc:creator>
        <dc:rights>
          <cc:Agent>
            <dc:title>Copyright Brecht Baeten</dc:title>
          </cc:Agent>
        </dc:rights>
        <dc:description />
        <cc:license
           rdf:resource="http://www.gnu.org/copyleft/gpl.html" />
      </cc:Work>
    </rdf:RDF>
  </metadata>
  <g
     inkscape:label="Layer 1"
     inkscape:groupmode="layer"
     id="layer1"
     transform="translate(0,-852.3622)">
    <g
       id="g2993">
      <path
         sodipodi:nodetypes="cccccccccccc"
         inkscape:connector-curvature="0"
         id="path2983"
         d="m 30.049232,1032.3622 0,-90.28567 -9.371922,0 79.66134,-67.71428 79.66134,67.71428 -9.37192,0 0,90.28567 -74.975383,0 0,-63.19995 -42.173649,0 0,63.19995 z"
         style="fill:#000000;stroke:#000000;stroke-width:0.99999994px;stroke-linecap:butt;stroke-linejoin:miter;stroke-opacity:1" />
      <rect
         y="882.36218"
         x="130"
         height="35.000019"
         width="15"
         id="rect3753"
         style="fill:#000000;fill-opacity:1;fill-rule:evenodd;stroke:#000000;stroke-width:1;stroke-linecap:round;stroke-linejoin:miter;stroke-miterlimit:4;stroke-opacity:1;stroke-dasharray:none;stroke-dashoffset:0" />
    </g>
    <g
       id="g3838"
       transform="matrix(0.29259258,0,0,0.29259258,42.749071,611.77567)">
      <path
         sodipodi:type="arc"
         style="fill:none;stroke:#000000;stroke-width:1.10759497;stroke-linecap:butt;stroke-linejoin:miter;stroke-miterlimit:4;stroke-opacity:1;stroke-dasharray:none;stroke-dashoffset:0"
         id="path3840"
         sodipodi:cx="-20"
         sodipodi:cy="-50"
         sodipodi:rx="35"
         sodipodi:ry="35"
         d="m 15,-50 c 0,19.329966 -15.67003376,35 -35,35 -19.329966,0 -35,-15.670034 -35,-35 0,-19.329966 15.670034,-35 35,-35 19.32996624,0 35,15.670034 35,35 z"
         transform="matrix(1.5428571,0,0,1.5428571,7.1071493,1021.7551)" />
      <path
         style="fill:#000000;stroke:#000000;stroke-width:0.34177211;stroke-linecap:butt;stroke-linejoin:miter;stroke-miterlimit:4;stroke-opacity:1;stroke-dasharray:none"
         d="m 6.9375,-101.5625 c -0.2089925,0.20899 -0.127552,2.119896 0,2.375 0.3981057,0.796212 1.075403,1.700403 1.6875,2.3125 0.2580368,0.258037 1.1342382,0.205977 1.25,0.4375 0.24569,0.49138 -0.0625,1.096122 -0.0625,1.5625 0,0.394015 0.051157,1.599422 -0.25,1.75 -0.9176311,0.458816 -0.4888288,1.5625 -2,1.5625 -1.9297069,0 -4.800169,-0.300169 -6.0625,-1.5625 -0.6302876,-0.630287 -0.2644431,-1.403886 -0.5625,-2 -0.28479302,-0.56959 -0.15779705,-0.344943 -0.8125,-0.625 -0.5119281,-0.218983 -0.37450927,0.271405 -0.5625,1.0625 0.0471438,0.141432 -0.0662228,0.367555 0,0.5 0.0527852,0.105571 0.60696314,1.165269 0.3125,1.3125 -0.11785114,0.05893 -0.25,0.08333 -0.375,0.125 -1.824522,0 -4.1411031,3.516103 -5.5,4.875 -0.4370669,0.437067 -4.449567,0.824567 -4.875,1.25 -0.883024,0.883024 4.4276725,3.144655 3,6 -0.093781,0.187561 -0.3921224,0.767123 -0.5,0.875 -0.4625072,0.462508 -6.573427,-1.176572 -7.5,-0.25 -0.20952,0.209517 -0.25,1.353724 -0.25,1.75 0,2.179952 -0.682935,6.192065 0.75,7.625 0.39127,0.391271 2.599711,1.125 3.125,1.125 0.0066,0 0.08634,-0.71134 0.125,-0.75 0.75,-0.75 3.625,0.625 4.375,-0.125 0.920799,-0.920798 0.3365082,-2.548016 0.875,-3.625 0.3564698,-0.712939 1.7843681,-1.159368 2.5,-1.875 0.3826653,-0.382665 0.8320819,-1.414163 1.125,-2 0.7167374,-1.433474 1.1082164,0.320892 2.25,-0.25 2.0955945,-1.047797 2.9960395,-0.87896 4.5,0.625 0.166667,0.166667 0.083333,0.583334 0.25,0.75 0.862167,0.862167 2.3760728,1.376073 3.125,2.125 0.955894,0.955894 0.4625252,2.5 2.25,2.5 0.5576374,0 -0.24323,-2.23646 -0.25,-2.25 -0.6730844,-1.346169 -4.8890106,-4.985989 -3.125,-6.75 0.442642,-0.442642 1.286799,0.573599 1.375,0.75 0.3546801,0.709361 0.8755387,1.375808 1.375,2.125 0.2140647,0.321097 0.1555668,1.030567 0.375,1.25 0.7555712,0.755572 1.962948,1.300896 2.5,2.375 0.259231,0.518463 0.167254,1.917255 0.5,2.25 0.258965,0.258965 0.609056,0.726084 0.875,1.125 0.184978,0.277468 0.471177,0.721177 0.625,0.875 0.188729,0.188729 1.66273,-0.200467 1.75,-0.375 0.146133,-0.292265 -1.386609,-3.880804 0.625,-2.875 1.726454,0.863227 0.214377,3.339377 1.25,4.375 1.588436,1.588436 4.75,-1.063939 4.75,2.625 0,0.453849 0.08476,1.330475 -0.125,1.75 -0.138201,0.276402 -0.07976,0.954765 -0.25,1.125 -1.161589,1.16159 -4.082612,-0.888768 -5.5,-1.125 -0.435041,-0.07251 -2.516864,-0.233136 -2.75,0 -0.125,0.125 0.125,0.625 0,0.75 -0.27984,0.27984 -1.572914,2.052086 -2.375,1.25 -0.863997,-0.863997 -4.7142134,-2.017809 -6.375,-3.125 -2.3462193,-1.564146 0.086395,-3.913604 -0.75,-4.75 -0.3750776,-0.375077 -5.0533294,-0.473335 -5.75,-0.125 -0.6397872,0.319894 -1.2105002,0.802625 -2,1 -0.716571,0.17914 -1.6004691,-0.199765 -2.25,0.125 -0.9818362,0.490918 -1.7282957,1.239148 -2.75,1.75 -1.288692,0.644347 -3.327754,-0.273623 -4.625,0.375 -0.434059,0.21703 -0.763357,0.888358 -1,1.125 -0.119395,0.119395 -0.607206,0.107207 -0.75,0.25 -0.250138,0.250138 -0.343621,2.280863 -0.5,2.75 -0.304995,0.914987 -0.889923,1.904846 -1.25,2.625 -0.809844,1.619688 -3.012357,1.887357 -4.375,3.25 -0.817068,0.817068 -1.455799,2.661599 -2,3.75 -0.141375,0.28275 -0.5,0.434381 -0.5,0.75 0,0.62843 -0.424967,3.575033 0,4 0.668274,0.668275 1.52371,5.19613 1.875,6.25 0.377106,1.131318 2.288264,3.206632 3.125,3.625 0.768018,0.384009 1.005725,1.880725 1.5,2.375 0.280365,0.280365 0.822779,0.572779 1.125,0.875 0.261481,0.261481 8.3940489,-0.179366 8.875,-0.5 0.2937492,-0.195833 1.7146683,-1.179336 1.875,-1.5 0.047464,-0.09493 0.49159,-1.5084 0.5,-1.5 1.1582475,1.158248 2.5817439,2.88783 3.875,3.75 0.4101877,0.273459 0.82898871,-0.01534 1.25,0.125 0.85510939,0.285037 1.8197616,0.819762 2.25,1.25 0.8875744,0.887575 -0.1102657,4.264735 0.375,4.75 0.2232068,0.223207 1.2110641,1.297128 1.375,1.625 0.6014058,1.202812 0.395708,5.708584 -0.125,6.75 -0.4450474,0.890095 -1.8953003,1.185901 -2.25,2.25 -0.4462553,1.338766 0.6508275,2.150828 1.375,2.875 0.7075275,0.707528 -0.2110528,2.844211 -0.375,3.5 -0.1372273,0.548909 0.117513,1.196207 0,1.75 0,0 16.504047,-9.026549 24.25,-26.875 5.475249,-12.616228 3.90288,-28.486004 -0.875,-41.25 -3.626065,-9.686947 -10.446601,-16.273996 -18.09375,-22.625 -0.650706,-0.0111 -0.7429813,-0.0383 -0.84375,0.0625 z"
         id="path3842"
         inkscape:connector-curvature="0"
         transform="translate(0,1002.3622)"
         sodipodi:nodetypes="ssssssssscsssssssssssssssssssssssssssssscsssssssssssssssssssssssssssccscsssssssssscsscs" />
      <path
         style="fill:#000000;stroke:#000000;stroke-width:0.34177211;stroke-linecap:butt;stroke-linejoin:miter;stroke-miterlimit:4;stroke-opacity:1;stroke-dasharray:none"
         d="m 0.28125,-105.71875 c -0.15948874,0.76033 -1.5135453,1.81702 -2.15625,2.03125 -0.084183,0.0281 -0.3658918,0.29232 -0.53125,0.375 -0.3832874,0.19164 -1.3011893,0.0824 -1.5625,0.34375 -0.5150912,0.51509 -0.8234697,0.86184 -0.1875,1.625 0.211783,0.25414 0.4421119,0.47106 0.75,0.625 0.460911,0.23046 0.5881122,0.62218 0.96875,0.8125 0.59548,0.29774 0.6468689,2.198435 0.875,2.3125 0.4757024,0.237851 0.70245914,-0.733709 0.9375,-0.96875 0.13956272,-0.139562 0.44930973,-0.03322 0.625,-0.0625 0.10863252,-0.01811 0.29734976,-0.17945 0.40625,-0.125 0.096435,0.04822 0.17465133,0.192418 0.28125,0.28125 0.2163725,0.180311 0.5610722,0.279822 0.75,0.46875 0.0431,0.0431 0.698119,1.438107 0.71875,1.5 0.1174591,0.352378 0.3260052,0.370761 0.46875,0.65625 0.2023706,0.404742 0.7845629,2.021938 1.1875,2.15625 0.1140563,0.03802 0.5392112,-0.224721 0.65625,-0.3125 0.2866996,-0.215024 0.5306519,-0.499003 0.71875,-0.8125 0.07166,-0.119433 0.017302,-0.364407 0.0625,-0.5 0.1810071,-0.543021 0.6059636,-2.506823 0.34375,-3.03125 -0.055327,-0.110653 -0.2264061,-0.226406 -0.3125,-0.3125 -0.6135671,-0.613567 -1.1481959,-0.881121 -1.28125,-1.8125 -0.1069204,-0.74844 0.031508,-1.1095 0.6875,-1.4375 0.1119576,-0.056 0.2827698,-0.0953 0.375,-0.1875 0.082897,-0.0829 0.1405876,-0.20309 0.21875,-0.28125 0.1187978,-0.1188 0.2748657,-0.11223 0.34375,-0.25 z"
         id="path3844"
         inkscape:connector-curvature="0"
         transform="translate(0,1002.3622)" />
      <path
         style="fill:#000000;stroke:#000000;stroke-width:0.34177211;stroke-linecap:butt;stroke-linejoin:miter;stroke-miterlimit:4;stroke-opacity:1;stroke-dasharray:none"
         d="m -62.989037,981.7125 c 3.191084,3.22302 6.858102,6.31512 10.311106,8.21383 1.139285,0.51429 2.252622,0.40347 2.448986,0.20711 0.733909,-0.73391 -0.182461,-1.67559 0.883883,-2.38649 1.240764,-0.82717 3.586452,0.47942 4.772971,-0.7071 0.155281,-0.15528 0,-1.26135 0,-1.5026 0,-0.47141 0,-0.94281 0,-1.41422 0,-0.62228 -0.193025,-1.63063 0,-2.20971 0.18947,-0.56841 2.49579,-2.42831 3.005204,-3.44714 0.115647,-0.2313 0.914055,-1.38404 0.53033,-1.76777 -0.620952,-0.62095 -2.204013,-0.96942 -3.093592,-1.41421 -1.402905,-0.70146 -2.054554,-1.86913 -3.358758,-2.65165 -0.952689,-0.57162 -2.114503,-0.87707 -2.828427,-1.59099 -0.07663,-0.0766 -1.782812,-0.2285 -2.032932,-0.35356 -0.475529,-0.23776 -1.559881,-0.85277 -1.944543,-1.23743 -0.598942,-0.59895 -1.701097,-2.92768 -2.032932,-3.0936 -0.888707,-0.44435 -1.670952,-0.90772 -2.563262,-1.5026 -0.317992,-0.21199 -0.431765,-0.56943 -0.707107,-0.7071 -0.71065,-0.35533 -1.682907,-0.79726 -2.386486,-1.14905 -0.581426,-0.29072 -1.028044,-1.2606 -1.325825,-1.85616 -0.07426,-0.14852 -1.374416,-1.4628 -1.59099,-1.67938 -0.311213,-0.31121 -2.373949,-1.12397 -2.474874,-1.32582 -0.03733,-0.0747 -3.420434,-1.44093 -3.800699,-1.06066 -0.392237,0.39223 -0.6299,0.71829 -0.972272,1.06066 -0.103119,0.10312 0.01473,0.42721 -0.08839,0.53033 -0.117851,0.11785 -0.589256,-0.11785 -0.707107,0 -0.327399,0.3274 0.518193,1.3778 0.618719,1.67938 0.468761,1.40628 -0.523654,6.64248 0,7.68978 0.212931,0.42587 0.42585,0.36149 0.486136,0.66291 1.637251,4.92817 6.036015,8.79422 8.850861,13.01324 z"
         id="path3846"
         inkscape:connector-curvature="0"
         sodipodi:nodetypes="ccsssssssssscssscssscccssssscc" />
      <path
         style="fill:#000000;stroke:#000000;stroke-width:0.34177211;stroke-linecap:butt;stroke-linejoin:miter;stroke-miterlimit:4;stroke-opacity:1;stroke-dasharray:none"
         d="m -73.27394,-43.868425 c -1.064732,-1.170206 -0.954387,-2.881045 -1.679379,-4.331029 -1.251447,-2.502896 -2.417258,-6.064092 -1.59099,-9.369165 0.267928,-1.071713 0.916676,-2.596054 1.679379,-3.358757 0.254015,-0.254015 1.587186,-4.661758 1.679378,-5.214913 0.559635,-3.357808 1.613519,-6.651654 4.065864,-9.103999 0.227878,-0.227878 0.718116,-0.327006 0.972272,-0.53033 0.8051,-0.644081 1.361037,-1.299237 2.298097,-1.767767 0.288462,-0.144231 0.768043,0.05792 1.06066,-0.08839 0.170656,-0.08533 0.493729,-0.696398 0.618719,-0.883883 0.959861,-1.439792 0.03043,-3.15155 -0.883884,-4.065864 -0.231907,-0.231907 -0.08839,-1.336704 -0.08839,-1.679379 0,-0.07547 -0.05555,-0.56317 0,-0.618718 0.647815,-0.647815 2.17077,0.01947 2.916815,-0.353554 0.455472,-0.227735 2.306659,-1.935982 2.386486,-1.856155 0.747719,0.747719 -0.101567,1.162227 -0.618719,1.679379 -0.398179,0.398179 -0.965135,1.638752 -0.353553,1.944543 0.217986,0.108993 0.587662,0.07286 0.795495,0.176777 1.356917,0.678459 2.212159,1.144149 2.916816,-0.265165 0.105915,-0.211831 0.220549,-1.149892 0.08839,-1.414214 -0.261532,-0.523064 -0.53033,-0.637305 -0.53033,-1.414213 0,-0.845289 0.380998,-2.861926 0,-3.623922 -0.223672,-0.447343 -0.539698,-0.09776 -0.795495,-0.353554 -0.48536,-0.485359 -1.099283,-1.364447 -1.590991,-1.856155 -0.127114,-0.127114 -0.249092,-1.960616 -0.08839,-2.12132 0.07055,-0.07055 0.34921,0.04637 0.441942,0 0.232741,-0.116371 0.270321,-1.102277 0,-1.237437 -1.53934,-0.76967 -1.211624,1.123236 -1.679379,1.59099 -0.528173,0.528173 -1.633752,-0.487568 -1.856155,-0.265165 -3.083034,2.086316 -4.447134,4.408368 -6.098796,7.336233 -2.215762,3.926861 -5.199122,8.111052 -5.656854,12.197592 -2.408562,4.760333 -2.107661,10.397382 -2.828429,15.202796 0.180142,4.894672 0.34195,9.425211 1.856155,12.727922 0.484766,0.969533 1.301134,2.664389 2.563266,2.916816 z"
         id="path3848"
         inkscape:connector-curvature="0"
         transform="translate(0,1002.3622)"
         sodipodi:nodetypes="cssssssssssscsssssssssssscsscccccc" />
      <path
         style="fill:#000000;stroke:#000000;stroke-width:0.34177211;stroke-linecap:butt;stroke-linejoin:miter;stroke-miterlimit:4;stroke-opacity:1;stroke-dasharray:none"
         d="m -30.228815,-111.26454 c -1.836892,0.21046 -3.543114,0.79604 -5.391689,0.92808 -0.636795,0.0455 -1.19826,0.26624 -1.811961,0.39775 -0.848566,0.18183 -1.74158,0.22219 -2.563262,0.53033 -0.587441,0.22029 -1.30718,0.40212 -1.856156,0.7071 -0.488815,0.27157 0.327129,-0.007 -0.353553,0.26517 -0.363126,0.14525 -0.786772,0.1886 -1.149048,0.30936 -0.27132,0.0904 -0.488024,0.3103 -0.751301,0.44194 -1.114265,0.55713 -2.549747,0.95875 -3.270369,1.67938 -0.08533,0.0853 -0.14081,0.31758 -0.220971,0.39774 -0.135087,0.13509 -0.479751,0.2524 -0.574524,0.44195 -0.439389,0.87877 -1.187061,2.01438 -1.502602,2.96101 -0.03336,0.10006 -0.565272,1.15367 -0.397748,1.23743 0.367699,0.18385 3.625729,0.46314 3.933282,0.30936 0.140792,-0.0704 0.291037,-0.25295 0.441941,-0.35355 0.469749,-0.31317 0.294045,-1.16772 0.574525,-1.63519 0.246059,-0.4101 0.623663,-1.07541 1.016466,-1.37002 0.435731,-0.32679 1.029451,-0.80952 1.546796,-1.01646 0.40815,-0.16326 0.82815,-0.25876 1.237437,-0.48614 0.327904,-0.18217 1.479978,-1.03803 1.723572,-1.28163 0.131644,-0.13164 0.238937,-0.33607 0.397748,-0.44194 0.535097,-0.35673 1.1673,-0.63851 1.723573,-0.97227 0.739453,-0.44367 1.778229,-0.48963 2.563262,-0.7513 0.619039,-0.20635 1.171488,-0.44643 1.811961,-0.57453 0.679832,-0.13596 1.293247,-0.093 1.944544,-0.35355 0.298394,-0.11936 0.706435,-0.0551 1.016466,-0.13258 0.197645,-0.0494 1.682464,-0.666 1.767766,-0.7513 0.242901,-0.2429 -0.411924,-0.50665 -0.53033,-0.53033 -0.534015,-0.10681 -1.15234,0.0938 -1.635184,-0.0442"
         id="path3850"
         inkscape:connector-curvature="0"
         transform="translate(0,1002.3622)" />
      <path
         style="fill:#000000;stroke:#000000;stroke-width:0.34177211;stroke-linecap:butt;stroke-linejoin:miter;stroke-miterlimit:4;stroke-opacity:1;stroke-dasharray:none"
         d="m -25.102291,-108.30353 c -0.987284,0.0646 -2.333687,0.40205 -3.226174,-0.0442 -0.01931,-0.01 -0.592996,-0.31661 -0.662913,-0.17678 -0.411246,0.82249 0.630066,1.38137 1.149049,1.90035 0.252783,0.25278 0.591352,0.33987 0.883883,0.48613 0.16429,0.0821 0.348067,0.23205 0.53033,0.35356 0.368157,0.24544 2.144368,0.18382 2.563262,0.0442 0.2789,-0.093 0.571518,-0.30785 0.839689,-0.44194 0.324726,-0.16236 0.750458,-0.17425 0.883884,-0.57452 0.149462,-0.44839 1.215759,-0.9164 0.795495,-1.5468 -0.377559,-0.56634 -1.727191,-0.30936 -2.298097,-0.30936 -0.182683,0 -0.624715,-0.0854 -0.795495,0 -0.305879,0.15294 -0.163304,0.30936 -0.662913,0.30936 z"
         id="path3852"
         inkscape:connector-curvature="0"
         transform="translate(0,1002.3622)" />
    </g>
  </g>
</svg>
