<?xml version="1.0" encoding="UTF-8" standalone="no"?>
<!-- Created with Inkscape (http://www.inkscape.org/) -->

<svg
   xmlns:dc="http://purl.org/dc/elements/1.1/"
   xmlns:cc="http://creativecommons.org/ns#"
   xmlns:rdf="http://www.w3.org/1999/02/22-rdf-syntax-ns#"
   xmlns:svg="http://www.w3.org/2000/svg"
   xmlns="http://www.w3.org/2000/svg"
   xmlns:xlink="http://www.w3.org/1999/xlink"
   xmlns:sodipodi="http://sodipodi.sourceforge.net/DTD/sodipodi-0.dtd"
   xmlns:inkscape="http://www.inkscape.org/namespaces/inkscape"
   width="200"
   height="200"
   id="svg2"
   version="1.1"
   inkscape:version="0.48.4 r9939"
   sodipodi:docname="icon.svg"
   inkscape:export-filename="/home/brecht/Documents/homeconn/data/logo.png"
   inkscape:export-xdpi="199.8"
   inkscape:export-ydpi="199.8">
  <defs
     id="defs4">
    <linearGradient
       id="linearGradient3909">
      <stop
         style="stop-color:#1a1a1a;stop-opacity:1;"
         offset="0"
         id="stop3911" />
      <stop
         style="stop-color:#1a1a1a;stop-opacity:0.81739128;"
         offset="1"
         id="stop3913" />
    </linearGradient>
    <filter
       inkscape:collect="always"
       id="filter3839">
      <feGaussianBlur
         inkscape:collect="always"
         stdDeviation="0.42090938"
         id="feGaussianBlur3841" />
    </filter>
    <clipPath
       clipPathUnits="userSpaceOnUse"
       id="clipPath3862">
      <path
         style="fill:none;stroke:#000000;stroke-width:1px;stroke-linecap:butt;stroke-linejoin:miter;stroke-opacity:1"
         d="m 75.726969,839.26105 -1.010153,38.84982 c 32.519104,7.15729 65.631184,13.45209 112.666484,-0.50508 l 0.50508,-38.89087 z"
         id="path3864"
         inkscape:connector-curvature="0"
         sodipodi:nodetypes="ccccc" />
    </clipPath>
    <linearGradient
       inkscape:collect="always"
       xlink:href="#linearGradient3909"
       id="linearGradient3915"
       x1="100"
       y1="160"
       x2="100"
       y2="10"
       gradientUnits="userSpaceOnUse" />
  </defs>
  <sodipodi:namedview
     id="base"
     pagecolor="#ffffff"
     bordercolor="#666666"
     borderopacity="1.0"
     inkscape:pageopacity="0.0"
     inkscape:pageshadow="2"
     inkscape:zoom="1.979899"
     inkscape:cx="104.52779"
     inkscape:cy="87.470991"
     inkscape:document-units="px"
     inkscape:current-layer="layer2"
     showgrid="true"
     inkscape:snap-bbox="false"
     inkscape:window-width="1320"
     inkscape:window-height="750"
     inkscape:window-x="46"
     inkscape:window-y="18"
     inkscape:window-maximized="1"
     inkscape:snap-nodes="true"
     inkscape:snap-grids="true"
     inkscape:object-paths="true"
     inkscape:object-nodes="true"
     borderlayer="true">
    <inkscape:grid
       type="xygrid"
       id="grid2985"
       empspacing="5"
       visible="true"
       enabled="true"
       snapvisiblegridlinesonly="true" />
  </sodipodi:namedview>
  <metadata
     id="metadata7">
    <rdf:RDF>
      <cc:Work
         rdf:about="">
        <dc:format>image/svg+xml</dc:format>
        <dc:type
           rdf:resource="http://purl.org/dc/dcmitype/StillImage" />
        <dc:title></dc:title>
      </cc:Work>
    </rdf:RDF>
  </metadata>
  <g
     inkscape:groupmode="layer"
     id="layer2"
     inkscape:label="Dark background">
    <rect
       style="fill:url(#linearGradient3915);fill-opacity:1;stroke:#808080;stroke-width:7;stroke-miterlimit:4;stroke-dasharray:none"
       id="rect3833"
       width="190"
       height="190"
       x="5"
       y="5"
       ry="20" />
  </g>
  <g
     inkscape:label="Layer 1"
     inkscape:groupmode="layer"
     id="layer1"
     transform="translate(0,-852.36218)">
    <g
       id="g3885"
       transform="matrix(0.90590048,0,0,0.90590048,9.3297603,90.424134)">
      <g
         transform="matrix(0.86515143,0,0,0.86515143,-8.8424229,139.27856)"
         id="g3818">
        <g
           transform="translate(7,-2.00002)"
           id="g3802">
          <path
             sodipodi:nodetypes="cccc"
             inkscape:connector-curvature="0"
             id="path3804"
             d="m 125,942.3622 0,39.99979 -50,25.00021 0,-40.00013"
             style="fill:#82564a;fill-opacity:1;stroke:none" />
          <path
             style="fill:#b78e82;fill-opacity:1;stroke:none"
             d="m 125,942.3622 0,19.99977 c -19.64625,20.05896 -34.788563,22.46873 -50,25.00021 l 0,-20.00011"
             id="path3806"
             inkscape:connector-curvature="0"
             sodipodi:nodetypes="cccc" />
          <path
             style="fill:none;stroke:#000000;stroke-width:1px;stroke-linecap:round;stroke-linejoin:round;stroke-opacity:1"
             d="m 125,982.36201 -50,25.00019 0,-40 50,-25 z"
             id="path3808"
             inkscape:connector-curvature="0"
             sodipodi:nodetypes="ccccc" />
        </g>
        <g
           id="g3797"
           transform="translate(2,-2e-5)">
          <path
             style="fill:#428a47;fill-opacity:1;stroke:none"
             d="m 45,917.36218 -31,17 c 0,0 0,27.56711 0,40 l 28,14 0,-28 14,7 0,28 20,10.00002 0,-40.00002 z"
             id="path3782"
             inkscape:connector-curvature="0"
             sodipodi:nodetypes="cccccccccc" />
          <path
             sodipodi:nodetypes="cccccc"
             inkscape:connector-curvature="0"
             id="path3784"
             d="m 45,917.36218 -31,17 0,8 c 25.79017,0.14711 44.904977,13.13145 62,30 l 0,-7 z"
             style="fill:#bcdfbf;fill-opacity:1;stroke:none" />
          <path
             sodipodi:nodetypes="cccccccccc"
             inkscape:connector-curvature="0"
             id="path3757"
             d="m 45,917.36218 -31,17 0,40 28,14 0,-28 14,7 0,28 20,10.00002 0,-40.00002 z"
             style="fill:none;stroke:#000000;stroke-width:1px;stroke-linecap:butt;stroke-linejoin:round;stroke-opacity:1" />
        </g>
        <g
           id="g3777"
           transform="translate(4.00001,-4)">
          <path
             sodipodi:nodetypes="ccccc"
             inkscape:connector-curvature="0"
             id="path3000"
             d="m 45,917.36218 31,48 50,-25 -31.000001,-43 z"
             style="fill:#4a5f82;fill-opacity:1;stroke:none" />
          <path
             style="fill:#b7c2d6;fill-opacity:1;stroke:none"
             d="m 45,917.36218 17,26 c 15.436676,-3.6677 32.006412,-1.93899 49,-24 l -16,-22 z"
             id="path3005"
             inkscape:connector-curvature="0"
             sodipodi:nodetypes="ccccc" />
          <path
             style="fill:none;stroke:#000000;stroke-width:1px;stroke-linecap:butt;stroke-linejoin:round;stroke-opacity:1"
             d="m 45,917.36218 31,48 49.99999,-25 -30.999986,-43 z"
             id="path3007"
             inkscape:connector-curvature="0"
             sodipodi:nodetypes="ccccc" />
        </g>
      </g>
      <text
         sodipodi:linespacing="125%"
         id="text3781"
         y="1009.7834"
         x="106.6967"
         style="font-size:40px;font-style:normal;font-weight:normal;line-height:125%;letter-spacing:0px;word-spacing:0px;fill:#999999;fill-opacity:1;stroke:none;font-family:Sans"
         xml:space="preserve"><tspan
           style="font-style:italic;font-variant:normal;font-weight:normal;font-stretch:normal;fill:#999999;fill-opacity:1;stroke:none;font-family:Steelfish;-inkscape-font-specification:Steelfish Italic"
           y="1009.7834"
           x="106.6967"
           id="tspan3783"
           sodipodi:role="line">conn</tspan></text>
      <text
         sodipodi:linespacing="125%"
         id="text3777"
         y="980.77325"
         x="88.927666"
         style="font-size:40px;font-style:normal;font-weight:normal;line-height:125%;letter-spacing:0px;word-spacing:0px;fill:#666666;fill-opacity:1;stroke:none;font-family:Sans"
         xml:space="preserve"><tspan
           style="font-size:80px;font-style:normal;font-variant:normal;font-weight:normal;font-stretch:normal;fill:#666666;fill-opacity:1;stroke:none;font-family:Steelfish;-inkscape-font-specification:Steelfish"
           y="980.77325"
           x="88.927666"
           id="tspan3779"
           sodipodi:role="line">Home</tspan></text>
      <g
         transform="translate(12.156836,68.601134)"
         clip-path="url(#clipPath3862)"
         id="text3847"
         style="font-size:40px;font-style:normal;font-weight:normal;line-height:125%;letter-spacing:0px;word-spacing:0px;fill:#999999;fill-opacity:1;stroke:none;font-family:Sans">
        <path
           inkscape:connector-curvature="0"
           id="path3852"
           style="font-size:80px;font-variant:normal;font-stretch:normal;fill:#999999;font-family:Steelfish;-inkscape-font-specification:Steelfish"
           d="m 94.327579,912.17212 0,-30.48 -8.48,0 0,30.48 -6.08,0 0,-65.84 6.08,0 0,29.36 8.48,0 0,-29.36 6.080001,0 0,65.84 -6.080001,0" />
        <path
           inkscape:connector-curvature="0"
           id="path3854"
           style="font-size:80px;font-variant:normal;font-stretch:normal;fill:#999999;font-family:Steelfish;-inkscape-font-specification:Steelfish"
           d="m 105.85008,871.77212 c 0,-3.19996 0.74666,-5.65329 2.24,-7.36 1.49333,-1.70662 3.78666,-2.55995 6.88,-2.56 3.03998,5e-5 5.30665,0.85338 6.8,2.56 1.54665,1.70671 2.31998,4.16004 2.32,7.36 l 0,31.28 c -2e-5,3.20001 -0.77335,5.65334 -2.32,7.36 -1.49335,1.65333 -3.76002,2.48 -6.8,2.48 -3.09334,0 -5.38667,-0.82667 -6.88,-2.48 -1.49334,-1.70666 -2.24,-4.15999 -2.24,-7.36 l 0,-31.28 m 12.88,0.16 c -2e-5,-1.38663 -0.26668,-2.45329 -0.8,-3.2 -0.48002,-0.79996 -1.46668,-1.19996 -2.96,-1.2 -1.49334,4e-5 -2.50668,0.40004 -3.04,1.2 -0.48001,0.74671 -0.72001,1.81337 -0.72,3.2 l 0,31.12 c -1e-5,1.38667 0.23999,2.45334 0.72,3.2 0.53332,0.69334 1.54666,1.04 3.04,1.04 1.49332,0 2.47998,-0.37333 2.96,-1.12 0.53332,-0.74666 0.79998,-1.83999 0.8,-3.28 l 0,-30.96" />
        <path
           inkscape:connector-curvature="0"
           id="path3856"
           style="font-size:80px;font-variant:normal;font-stretch:normal;fill:#999999;font-family:Steelfish;-inkscape-font-specification:Steelfish"
           d="m 153.37508,912.17212 0,-41.2 c -3e-5,-2.45329 -0.93336,-3.67996 -2.8,-3.68 -0.74669,4e-5 -1.44002,0.24004 -2.08,0.72 -0.64002,0.48004 -1.17336,1.25338 -1.6,2.32 l 0,41.84 -5.52,0 0,-41.2 c -2e-5,-2.45329 -0.93335,-3.67996 -2.8,-3.68 -0.69335,4e-5 -1.36001,0.24004 -2,0.72 -0.64001,0.48004 -1.17334,1.25338 -1.6,2.32 l 0,41.84 -5.52,0 0,-49.52 4.64,0 c 0.15999,1.22671 0.23999,2.45338 0.24,3.68 0.69332,-1.38662 1.59999,-2.47995 2.72,-3.28 1.11999,-0.79995 2.37332,-1.19995 3.76,-1.2 2.82665,5e-5 4.61331,1.44005 5.36,4.32 0.69331,-1.33329 1.59998,-2.37329 2.72,-3.12 1.17331,-0.79995 2.47997,-1.19995 3.92,-1.2 2.07997,5e-5 3.59997,0.74672 4.56,2.24 0.95997,1.49338 1.43997,3.76004 1.44,6.8 l 0,41.28 -5.44,0" />
        <path
           inkscape:connector-curvature="0"
           id="path3858"
           style="font-size:80px;font-variant:normal;font-stretch:normal;fill:#999999;font-family:Steelfish;-inkscape-font-specification:Steelfish"
           d="m 176.37133,872.01212 c -2e-5,-2.93329 -1.22668,-4.39996 -3.68,-4.4 -2.29334,4e-5 -3.44001,1.46671 -3.44,4.4 l 0,11.92 7.12,0 0,-11.92 m 0,20 5.2,0 0,10.88 c -2e-5,6.66667 -2.96002,10 -8.88,10 -5.70667,0 -8.56,-3.33333 -8.56,-10 l 0,-30.88 c 0,-3.35996 0.72,-5.89329 2.16,-7.6 1.49333,-1.70662 3.62666,-2.55995 6.4,-2.56 5.91998,5e-5 8.87998,3.38671 8.88,10.16 l 0,15.92 -12.32,0 0,14.96 c -1e-5,2.93334 1.14666,4.4 3.44,4.4 2.45332,0 3.67998,-1.46666 3.68,-4.4 l 0,-10.88" />
      </g>
    </g>
  </g>
</svg>
