<?xml version="1.0" encoding="UTF-8" standalone="no"?>
<!-- Created with Inkscape (http://www.inkscape.org/) -->

<svg
   xmlns:dc="http://purl.org/dc/elements/1.1/"
   xmlns:cc="http://creativecommons.org/ns#"
   xmlns:rdf="http://www.w3.org/1999/02/22-rdf-syntax-ns#"
   xmlns:svg="http://www.w3.org/2000/svg"
   xmlns="http://www.w3.org/2000/svg"
   xmlns:xlink="http://www.w3.org/1999/xlink"
   xmlns:sodipodi="http://sodipodi.sourceforge.net/DTD/sodipodi-0.dtd"
   xmlns:inkscape="http://www.inkscape.org/namespaces/inkscape"
   width="400"
   height="400"
   id="svg3009"
   version="1.1"
   inkscape:version="0.48.4 r9939"
   sodipodi:docname="logo.svg"
   inkscape:export-filename="D:\Personal\Brecht\Huis\KNX\visu\homecontrol\logo.png"
   inkscape:export-xdpi="39.509998"
   inkscape:export-ydpi="39.509998">
  <defs
     id="defs3011">
    <linearGradient
       id="linearGradient3966">
      <stop
         style="stop-color:#006423;stop-opacity:0.58823532;"
         offset="0"
         id="stop3968" />
      <stop
         style="stop-color:#006423;stop-opacity:0;"
         offset="1"
         id="stop3970" />
    </linearGradient>
    <linearGradient
       id="linearGradient3958">
      <stop
         style="stop-color:#000000;stop-opacity:0.54782611;"
         offset="0"
         id="stop3960" />
      <stop
         style="stop-color:#000000;stop-opacity:0;"
         offset="1"
         id="stop3962" />
    </linearGradient>
    <linearGradient
       id="linearGradient3831">
      <stop
         style="stop-color:#ffffff;stop-opacity:0;"
         offset="0"
         id="stop3833" />
      <stop
         style="stop-color:#ffffff;stop-opacity:1;"
         offset="1"
         id="stop3835" />
    </linearGradient>
    <clipPath
       clipPathUnits="userSpaceOnUse"
       id="clipPath3010">
      <path
         style="fill:#ffffff;fill-opacity:1;fill-rule:nonzero;stroke:#000000;stroke-width:0.7086615;stroke-linecap:round;stroke-linejoin:miter;stroke-miterlimit:4;stroke-opacity:1;stroke-dashoffset:0"
         d="m 70.866142,396.85037 c 126.936608,-72.89938 261.513208,-83.15077 407.480318,0 l 0,141.73229 -407.480318,0 z"
         id="path3012"
         inkscape:connector-curvature="0"
         sodipodi:nodetypes="ccccc" />
    </clipPath>
    <radialGradient
       inkscape:collect="always"
       xlink:href="#linearGradient3831"
       id="radialGradient3837"
       cx="120.47244"
       cy="933.66138"
       fx="120.47244"
       fy="933.66138"
       r="109.84252"
       gradientTransform="matrix(1,0,0,0.69354841,0,286.12202)"
       gradientUnits="userSpaceOnUse" />
    <radialGradient
       inkscape:collect="always"
       xlink:href="#linearGradient3831"
       id="radialGradient3852"
       gradientUnits="userSpaceOnUse"
       gradientTransform="matrix(1,0,0,0.69354841,0,286.12202)"
       cx="120.47244"
       cy="933.66138"
       fx="120.47244"
       fy="933.66138"
       r="109.84252" />
    <radialGradient
       inkscape:collect="always"
       xlink:href="#linearGradient3831"
       id="radialGradient3012"
       gradientUnits="userSpaceOnUse"
       gradientTransform="matrix(1,0,0,0.69354841,-7.0866143,325.44429)"
       cx="120.47244"
       cy="933.66138"
       fx="120.47244"
       fy="933.66138"
       r="109.84252" />
    <radialGradient
       inkscape:collect="always"
       xlink:href="#linearGradient3831-7"
       id="radialGradient3012-1"
       gradientUnits="userSpaceOnUse"
       gradientTransform="matrix(1,0,0,0.69354841,-7.0866143,325.44429)"
       cx="120.47244"
       cy="933.66138"
       fx="120.47244"
       fy="933.66138"
       r="109.84252" />
    <linearGradient
       id="linearGradient3831-7">
      <stop
         style="stop-color:#ffffff;stop-opacity:0;"
         offset="0"
         id="stop3833-4" />
      <stop
         style="stop-color:#ffffff;stop-opacity:1;"
         offset="1"
         id="stop3835-0" />
    </linearGradient>
    <linearGradient
       inkscape:collect="always"
       xlink:href="#linearGradient3966"
       id="linearGradient3972"
       x1="200"
       y1="300"
       x2="200"
       y2="80"
       gradientUnits="userSpaceOnUse" />
    <clipPath
       clipPathUnits="userSpaceOnUse"
       id="clipPath4022">
      <rect
         style="fill:#333333;fill-opacity:1;stroke:none"
         id="rect4024"
         width="253.59946"
         height="489.12051"
         x="-33.560009"
         y="-609.30853" />
    </clipPath>
  </defs>
  <sodipodi:namedview
     id="base"
     pagecolor="#ffffff"
     bordercolor="#666666"
     borderopacity="1.0"
     inkscape:pageopacity="0.0"
     inkscape:pageshadow="2"
     inkscape:zoom="0.98994949"
     inkscape:cx="257.73398"
     inkscape:cy="273.47425"
     inkscape:document-units="px"
     inkscape:current-layer="layer3"
     showgrid="true"
     units="px"
     inkscape:window-width="1320"
     inkscape:window-height="750"
     inkscape:window-x="46"
     inkscape:window-y="18"
     inkscape:window-maximized="1"
     showguides="true"
     inkscape:guide-bbox="true"
     inkscape:snap-nodes="true"
     inkscape:snap-bbox="true"
     borderlayer="true">
    <inkscape:grid
       type="xygrid"
       id="grid3017"
       empspacing="5"
       visible="true"
       enabled="true"
       snapvisiblegridlinesonly="true"
       units="px"
       spacingx="5px"
       spacingy="5px"
       dotted="false" />
  </sodipodi:namedview>
  <metadata
     id="metadata3014">
    <rdf:RDF>
      <cc:Work
         rdf:about="">
        <dc:format>image/svg+xml</dc:format>
        <dc:type
           rdf:resource="http://purl.org/dc/dcmitype/StillImage" />
        <dc:title />
      </cc:Work>
    </rdf:RDF>
  </metadata>
  <g
     inkscape:label="Background"
     inkscape:groupmode="layer"
     id="layer1"
     transform="translate(0,-652.36221)"
     style="display:inline">
    <rect
       style="fill:url(#linearGradient3972);fill-opacity:1;stroke:none"
       id="rect3956"
       width="380"
       height="380"
       x="10"
       y="10"
       transform="translate(0,652.36221)"
       rx="30.062922" />
  </g>
  <g
     inkscape:groupmode="layer"
     id="layer3"
     inkscape:label="Grid">
    <g
       id="g3911"
       style="fill:#cccccc;stroke:none"
       transform="matrix(0.38092863,0,0,0.39500815,193.63964,262.30541)">
      <path
         sodipodi:nodetypes="cscc"
         inkscape:connector-curvature="0"
         id="path3901"
         d="m 170.39714,-448.85143 c 0,0 -33.32117,11.01327 -37.48177,-0.46762 -4.04238,-11.15464 26.37296,-22.33505 26.37296,-22.33505 5.28191,6.49023 8.79048,14.22783 11.10881,22.80267 z"
         style="fill:#cccccc;stroke:none" />
      <path
         sodipodi:nodetypes="ccccc"
         inkscape:connector-curvature="0"
         id="path3899"
         d="m 146.21936,-134.67616 c 9.33305,2.96116 19.88863,2.94158 26.07143,0.35715 l -8.57142,-313.57143 c -8.03485,-3.19565 -11.23463,-2.03974 -14.64286,-1.07143 z"
         style="fill:#cccccc;stroke:none" />
      <path
         sodipodi:nodetypes="cccsccc"
         inkscape:connector-curvature="0"
         id="path3907"
         d="m 178.797,-465.55975 c 28.46037,-29.62598 50.6364,-63.44152 75.5089,-95.45941 l -3.28299,-1.76777 c 0,0 -47.23559,46.3828 -68.43784,69.70052 -2.62235,2.884 -4.67671,14.27317 -6.31345,15.90991 l -7.32361,9.09137 z"
         style="fill:#cccccc;stroke:none" />
      <path
         sodipodi:nodetypes="ccsc"
         inkscape:connector-curvature="0"
         id="path3903"
         d="m 172.61398,-450.18076 c -11.59447,-1.87562 -13.91562,-12.52161 -10.97163,-21.3712 2.73867,-0.71428 18.91342,-3.61265 22.37129,3.6222 3.44374,7.20528 -11.39966,17.749 -11.39966,17.749 z"
         style="fill:#cccccc;stroke:none" />
      <path
         sodipodi:nodetypes="cccsccc"
         inkscape:connector-curvature="0"
         id="path3905"
         d="m 165.81889,-469.86896 -160.7142853,-74.82143 -1.0714285,4.64286 c 0,0 92.8321208,51.68303 132.1069538,73.36222 3.66435,2.02267 18.79859,0.84056 18.79859,0.84056 l 8.21057,4.32532 c 1.34191,-2.03503 3.62219,-3.35326 2.6696,-8.34953 z"
         style="fill:#cccccc;stroke:none" />
      <path
         sodipodi:nodetypes="cccscc"
         inkscape:connector-curvature="0"
         id="path3909"
         d="m 168.44294,-452.17523 52.78047,168.1904 2.27284,-0.50508 c -7.59308,-48.44493 -24.27297,-98.84884 -35.60788,-136.87567 l -9.78585,-32.82995 c -3.8165,-0.86782 -7.93548,0.47377 -9.65958,2.0203 z"
         style="fill:#cccccc;stroke:none" />
    </g>
    <g
       transform="matrix(0.39432261,0,0,0.40889718,298.23347,324.14454)"
       style="fill:#cccccc;stroke:none"
       id="g3850"
       clip-path="url(#clipPath4022)">
      <path
         style="fill:#cccccc;stroke:none"
         d="m 170.39714,-448.85143 c 0,0 -33.32117,11.01327 -37.48177,-0.46762 -4.04238,-11.15464 26.37296,-22.33505 26.37296,-22.33505 5.28191,6.49023 8.79048,14.22783 11.10881,22.80267 z"
         id="path3852"
         inkscape:connector-curvature="0"
         sodipodi:nodetypes="cscc" />
      <path
         style="fill:#cccccc;stroke:none"
         d="m 146.21936,-134.67616 c 9.33305,2.96116 19.88863,2.94158 26.07143,0.35715 l -8.57142,-313.57143 c -8.03485,-3.19565 -11.23463,-2.03974 -14.64286,-1.07143 z"
         id="path3854"
         inkscape:connector-curvature="0"
         sodipodi:nodetypes="ccccc" />
      <path
         style="fill:#cccccc;stroke:none"
         d="m 178.797,-465.55975 c 28.46037,-29.62598 50.6364,-63.44152 75.5089,-95.45941 l -3.28299,-1.76777 c 0,0 -47.23559,46.3828 -68.43784,69.70052 -2.62235,2.884 -4.67671,14.27317 -6.31345,15.90991 l -7.32361,9.09137 z"
         id="path3856"
         inkscape:connector-curvature="0"
         sodipodi:nodetypes="cccsccc" />
      <path
         style="fill:#cccccc;stroke:none"
         d="m 172.61398,-450.18076 c -11.59447,-1.87562 -13.91562,-12.52161 -10.97163,-21.3712 2.73867,-0.71428 18.91342,-3.61265 22.37129,3.6222 3.44374,7.20528 -11.39966,17.749 -11.39966,17.749 z"
         id="path3858"
         inkscape:connector-curvature="0"
         sodipodi:nodetypes="ccsc" />
      <path
         style="fill:#cccccc;stroke:none"
         d="m 165.81889,-469.86896 -160.7142853,-74.82143 -1.0714285,4.64286 c 0,0 92.8321208,51.68303 132.1069538,73.36222 3.66435,2.02267 18.79859,0.84056 18.79859,0.84056 l 8.21057,4.32532 c 1.34191,-2.03503 3.62219,-3.35326 2.6696,-8.34953 z"
         id="path3860"
         inkscape:connector-curvature="0"
         sodipodi:nodetypes="cccsccc" />
      <path
         style="fill:#cccccc;stroke:none"
         d="m 168.44294,-452.17523 52.78047,168.1904 2.27284,-0.50508 c -7.59308,-48.44493 -24.27297,-98.84884 -35.60788,-136.87567 l -9.78585,-32.82995 c -3.8165,-0.86782 -7.93548,0.47377 -9.65958,2.0203 z"
         id="path3862"
         inkscape:connector-curvature="0"
         sodipodi:nodetypes="cccscc" />
    </g>
    <g
       transform="matrix(0.31370593,0,0,0.32530083,278.73477,193.07505)"
       style="fill:#cccccc;stroke:none"
       id="g3864">
      <path
         style="fill:#cccccc;stroke:none"
         d="m 170.39714,-448.85143 c 0,0 -33.32117,11.01327 -37.48177,-0.46762 -4.04238,-11.15464 26.37296,-22.33505 26.37296,-22.33505 5.28191,6.49023 8.79048,14.22783 11.10881,22.80267 z"
         id="path3866"
         inkscape:connector-curvature="0"
         sodipodi:nodetypes="cscc" />
      <path
         style="fill:#cccccc;stroke:none"
         d="m 146.21936,-134.67616 c 9.33305,2.96116 19.88863,2.94158 26.07143,0.35715 l -8.57142,-313.57143 c -8.03485,-3.19565 -11.23463,-2.03974 -14.64286,-1.07143 z"
         id="path3868"
         inkscape:connector-curvature="0"
         sodipodi:nodetypes="ccccc" />
      <path
         style="fill:#cccccc;stroke:none"
         d="m 178.797,-465.55975 c 28.46037,-29.62598 50.6364,-63.44152 75.5089,-95.45941 l -3.28299,-1.76777 c 0,0 -47.23559,46.3828 -68.43784,69.70052 -2.62235,2.884 -4.67671,14.27317 -6.31345,15.90991 l -7.32361,9.09137 z"
         id="path3870"
         inkscape:connector-curvature="0"
         sodipodi:nodetypes="cccsccc" />
      <path
         style="fill:#cccccc;stroke:none"
         d="m 172.61398,-450.18076 c -11.59447,-1.87562 -13.91562,-12.52161 -10.97163,-21.3712 2.73867,-0.71428 18.91342,-3.61265 22.37129,3.6222 3.44374,7.20528 -11.39966,17.749 -11.39966,17.749 z"
         id="path3872"
         inkscape:connector-curvature="0"
         sodipodi:nodetypes="ccsc" />
      <path
         style="fill:#cccccc;stroke:none"
         d="m 165.81889,-469.86896 -160.7142853,-74.82143 -1.0714285,4.64286 c 0,0 92.8321208,51.68303 132.1069538,73.36222 3.66435,2.02267 18.79859,0.84056 18.79859,0.84056 l 8.21057,4.32532 c 1.34191,-2.03503 3.62219,-3.35326 2.6696,-8.34953 z"
         id="path3874"
         inkscape:connector-curvature="0"
         sodipodi:nodetypes="cccsccc" />
      <path
         style="fill:#cccccc;stroke:none"
         d="m 168.44294,-452.17523 52.78047,168.1904 2.27284,-0.50508 c -7.59308,-48.44493 -24.27297,-98.84884 -35.60788,-136.87567 l -9.78585,-32.82995 c -3.8165,-0.86782 -7.93548,0.47377 -9.65958,2.0203 z"
         id="path3876"
         inkscape:connector-curvature="0"
         sodipodi:nodetypes="cccscc" />
    </g>
  </g>
  <g
     inkscape:groupmode="layer"
     id="layer2"
     inkscape:label="Home"
     transform="translate(0,240.55116)">
    <path
       style="fill:#333333;stroke:none"
       d="m 160,-150.55112 -45,39.99996 0,-30 -20,0 0,45 -65,55 20,0 0,150 35,0 0,-75 45,0 0,75 140,0 0,-150 20,0 -130,-110 z m -75,109.99996 55,0 0,35 -55,0 z m 85,0 75,0 0,35 -75,0 z m 20,75 55,0 0,35 -55,0 z"
       id="path3019"
       inkscape:connector-curvature="0"
       sodipodi:nodetypes="cccccccccccccccccccccccccccccccc" />
    <rect
       style="fill:#333333;fill-opacity:1;stroke:none"
       id="rect3974"
       width="15"
       height="30"
       x="275"
       y="74.448837" />
    <rect
       y="11.93854"
       x="223.85298"
       height="79.470467"
       width="5.6764622"
       id="rect3976"
       style="fill:#333333;fill-opacity:1;stroke:none"
       transform="matrix(0.76338626,-0.64594227,0.76338626,0.64594227,0,0)" />
  </g>
  <g
     inkscape:groupmode="layer"
     id="layer4"
     inkscape:label="Border"
     transform="translate(0,240.55116)">
    <rect
       rx="30.062922"
       y="-226.94128"
       x="13.60988"
       height="372.78024"
       width="372.78024"
       id="rect3824"
       style="fill:none;stroke:#0b2716;stroke-width:7.21976088999999988;stroke-linecap:round;stroke-linejoin:miter;stroke-miterlimit:4;stroke-opacity:1;stroke-dasharray:none;stroke-dashoffset:0" />
    <path
       style="fill:none;stroke:#333333;stroke-width:1px;stroke-linecap:butt;stroke-linejoin:miter;stroke-opacity:1"
       d="m 170,-39.996596 75,0"
       id="path4004"
       inkscape:connector-curvature="0" />
    <g
       id="g4006">
      <path
         transform="translate(0,-240.55116)"
         inkscape:connector-curvature="0"
         id="path3978"
         d="m 170,220 75,0"
         style="fill:none;stroke:#333333;stroke-width:1px;stroke-linecap:butt;stroke-linejoin:miter;stroke-opacity:1" />
      <path
         inkscape:connector-curvature="0"
         id="path3988"
         d="m 170,-22.711757 75,0"
         style="fill:none;stroke:#333333;stroke-width:1px;stroke-linecap:butt;stroke-linejoin:miter;stroke-opacity:1" />
      <path
         inkscape:connector-curvature="0"
         id="path3990"
         d="m 170,-24.872371 75,0"
         style="fill:none;stroke:#333333;stroke-width:1px;stroke-linecap:butt;stroke-linejoin:miter;stroke-opacity:1" />
      <path
         inkscape:connector-curvature="0"
         id="path3992"
         d="m 170,-27.032972 75,0"
         style="fill:none;stroke:#333333;stroke-width:1px;stroke-linecap:butt;stroke-linejoin:miter;stroke-opacity:1" />
      <path
         inkscape:connector-curvature="0"
         id="path3994"
         d="m 170,-29.193576 75,0"
         style="fill:none;stroke:#333333;stroke-width:1px;stroke-linecap:butt;stroke-linejoin:miter;stroke-opacity:1" />
      <path
         inkscape:connector-curvature="0"
         id="path3996"
         d="m 170,-31.354178 75,0"
         style="fill:none;stroke:#333333;stroke-width:1px;stroke-linecap:butt;stroke-linejoin:miter;stroke-opacity:1" />
      <path
         inkscape:connector-curvature="0"
         id="path3998"
         d="m 170,-33.514777 75,0"
         style="fill:none;stroke:#333333;stroke-width:1px;stroke-linecap:butt;stroke-linejoin:miter;stroke-opacity:1" />
      <path
         inkscape:connector-curvature="0"
         id="path4000"
         d="m 170,-35.675375 75,0"
         style="fill:none;stroke:#333333;stroke-width:1px;stroke-linecap:butt;stroke-linejoin:miter;stroke-opacity:1" />
      <path
         inkscape:connector-curvature="0"
         id="path4002"
         d="m 170,-37.835995 75,0"
         style="fill:none;stroke:#333333;stroke-width:1px;stroke-linecap:butt;stroke-linejoin:miter;stroke-opacity:1" />
      <path
         style="fill:none;stroke:#333333;stroke-width:1px;stroke-linecap:butt;stroke-linejoin:miter;stroke-opacity:1"
         d="m 170,-39.996596 75,0"
         id="path3986"
         inkscape:connector-curvature="0" />
    </g>
  </g>
</svg>
