<?xml version="1.0" encoding="UTF-8" standalone="no"?>
<!-- Created with Inkscape (http://www.inkscape.org/) -->

<svg
   xmlns:dc="http://purl.org/dc/elements/1.1/"
   xmlns:cc="http://creativecommons.org/ns#"
   xmlns:rdf="http://www.w3.org/1999/02/22-rdf-syntax-ns#"
   xmlns:svg="http://www.w3.org/2000/svg"
   xmlns="http://www.w3.org/2000/svg"
   xmlns:sodipodi="http://sodipodi.sourceforge.net/DTD/sodipodi-0.dtd"
   xmlns:inkscape="http://www.inkscape.org/namespaces/inkscape"
   width="200"
   height="200"
   id="svg3009"
   version="1.1"
   inkscape:version="0.48.2 r9819"
   sodipodi:docname="alarm.svg">
  <defs
     id="defs3011" />
  <sodipodi:namedview
     id="base"
     pagecolor="#ffffff"
     bordercolor="#666666"
     borderopacity="1.0"
     inkscape:pageopacity="0.0"
     inkscape:pageshadow="2"
     inkscape:zoom="1.979899"
     inkscape:cx="15.96275"
     inkscape:cy="55.721911"
     inkscape:document-units="px"
     inkscape:current-layer="layer1"
     showgrid="true"
     units="px"
     inkscape:window-width="1280"
     inkscape:window-height="962"
     inkscape:window-x="-8"
     inkscape:window-y="-8"
     inkscape:window-maximized="1"
     showguides="true"
     inkscape:guide-bbox="true">
    <inkscape:grid
       type="xygrid"
       id="grid3017"
       empspacing="5"
       visible="true"
       enabled="true"
       snapvisiblegridlinesonly="true"
       units="px"
       spacingx="1px"
       spacingy="1px"
       dotted="false" />
  </sodipodi:namedview>
  <metadata
     id="metadata3014">
    <rdf:RDF>
      <cc:Work
         rdf:about="">
        <dc:format>image/svg+xml</dc:format>
        <dc:type
           rdf:resource="http://purl.org/dc/dcmitype/StillImage" />
        <dc:title></dc:title>
        <dc:creator>
          <cc:Agent>
            <dc:title>Brecht Baeten</dc:title>
          </cc:Agent>
        </dc:creator>
        <dc:rights>
          <cc:Agent>
            <dc:title>Copyright Brecht Baeten</dc:title>
          </cc:Agent>
        </dc:rights>
        <dc:description />
        <cc:license
           rdf:resource="http://www.gnu.org/copyleft/gpl.html" />
      </cc:Work>
    </rdf:RDF>
  </metadata>
  <g
     inkscape:label="Layer 1"
     inkscape:groupmode="layer"
     id="layer1"
     transform="translate(0,-852.3622)">
    <path
       transform="matrix(1.0338247,0,0,1.0335414,-404.36743,747.22984)"
       d="m 547.25571,203.90266 a 59.390228,59.390228 0 1 1 -118.78046,0 59.390228,59.390228 0 1 1 118.78046,0 z"
       sodipodi:ry="59.390228"
       sodipodi:rx="59.390228"
       sodipodi:cy="203.90266"
       sodipodi:cx="487.86548"
       id="path3034"
       style="fill:none;stroke:#000000;stroke-width:7.7393163;stroke-linecap:round;stroke-linejoin:round;stroke-miterlimit:3.57142854;stroke-opacity:1;stroke-dasharray:none;stroke-dashoffset:0"
       sodipodi:type="arc" />
    <path
       inkscape:connector-curvature="0"
       id="path3804"
       d="M 54.913569,1002.5927 C 33.163344,1024.337 34.975861,1022.525 34.975861,1022.525"
       style="fill:none;stroke:#000000;stroke-width:8;stroke-linecap:round;stroke-linejoin:miter;stroke-miterlimit:3.57142854;stroke-opacity:1;stroke-dasharray:none" />
    <path
       style="fill:none;stroke:#000000;stroke-width:8;stroke-linecap:round;stroke-linejoin:miter;stroke-miterlimit:3.57142854;stroke-opacity:1;stroke-dasharray:none"
       d="m 144.63327,1002.5927 c 21.75023,21.7443 19.93772,19.9323 19.93772,19.9323"
       id="path3806"
       inkscape:connector-curvature="0" />
    <path
       sodipodi:nodetypes="cc"
       inkscape:connector-curvature="0"
       id="path3808"
       d="m 99.999994,918.25565 0,39.56443"
       style="fill:none;stroke:#000000;stroke-width:8;stroke-linecap:round;stroke-linejoin:miter;stroke-miterlimit:3.57142854;stroke-opacity:1;stroke-dasharray:none" />
    <path
       style="fill:none;stroke:#000000;stroke-width:8;stroke-linecap:round;stroke-linejoin:miter;stroke-miterlimit:3.57142854;stroke-opacity:1;stroke-dasharray:none"
       d="m 99.999994,957.82008 c -16.801809,16.7972 -15.401668,15.39741 -15.401668,15.39741"
       id="path3810"
       inkscape:connector-curvature="0" />
    <path
       inkscape:connector-curvature="0"
       id="path3814"
       d="m 37.317961,914.3281 c -1.908363,-2.10168 -3.477391,-5.01739 -4.327824,-8.04231 -0.449015,-1.59719 -0.628621,-6.27512 -0.306016,-7.97085 0.824138,-4.33197 2.793617,-7.88651 6.068624,-10.95273 2.48233,-2.32408 5.12152,-3.78525 8.557681,-4.73793 1.626341,-0.45089 6.096617,-0.61477 8.08277,-0.29631 3.74875,0.60108 7.39527,2.3993 10.179673,5.01994 1.042768,0.98145 2.925499,3.16372 2.925499,3.39097 0,0.0849 -0.488904,0.32469 -1.086438,0.53285 -10.935982,3.80963 -20.965048,11.83396 -27.135892,21.71163 -0.742084,1.18786 -1.427652,2.28868 -1.523481,2.44626 -0.131554,0.21631 -0.482987,-0.0535 -1.434596,-1.10152 z"
       style="fill:none;stroke:#000000;stroke-width:8;stroke-linecap:round;stroke-linejoin:round;stroke-miterlimit:3.57142854;stroke-opacity:1;stroke-dasharray:none;stroke-dashoffset:0" />
    <path
       style="fill:none;stroke:#000000;stroke-width:8;stroke-linecap:round;stroke-linejoin:round;stroke-miterlimit:3.57142854;stroke-opacity:1;stroke-dasharray:none;stroke-dashoffset:0"
       d="m 162.68203,914.3281 c 1.90837,-2.10168 3.4774,-5.01739 4.32783,-8.04231 0.44901,-1.59719 0.62862,-6.27512 0.30603,-7.97085 -0.82415,-4.33197 -2.79362,-7.88651 -6.06863,-10.95273 -2.48234,-2.32408 -5.12152,-3.78525 -8.55769,-4.73793 -1.62634,-0.45089 -6.09662,-0.61477 -8.08277,-0.29631 -3.74874,0.60108 -7.39527,2.3993 -10.17966,5.01994 -1.04278,0.98145 -2.92551,3.16372 -2.92551,3.39097 0,0.0849 0.48891,0.32469 1.08644,0.53285 10.93598,3.80963 20.96504,11.83396 27.13589,21.71163 0.74208,1.18786 1.42766,2.28868 1.52348,2.44626 0.13156,0.21631 0.483,-0.0535 1.43459,-1.10152 z"
       id="path3818"
       inkscape:connector-curvature="0" />
  </g>
</svg>
